<?xml version="1.0" encoding="UTF-8"?>
<svg version="1.1" viewBox="0 0 2500 1250" xmlns="http://www.w3.org/2000/svg">
	<defs id="definitions">
		<marker id="arrow" fill="none" stroke="#000000" markerHeight="20" markerWidth="10" orient="auto-start-reverse" refX="9" refY="10" viewBox="0 0 10 20">
			<path d="m0 0 10 10-10 10" stroke-width="3"/>
		</marker>
		<marker id="arrow_rev" fill="none" overflow="visible" stroke="#000000" markerHeight="20" markerWidth="10" orient="auto-start-reverse" refX="5" refY="10" viewBox="0 0 10 20">
			<path d="m10 0-10 10 10 10" stroke-width="3"/>
		</marker>
		<marker id="arrow_point" markerHeight="20" markerUnits="userSpaceOnUse" markerWidth="30" orient="auto-start-reverse" preserveAspectRatio="xMidYMid" refX="10" refY="10" viewBox="0 0 30 20">
			<path d="M 0,0 30,10 0,20 10,10 0,0" fill="#000000" stroke-width="0"/>
		</marker>
		<path id="lock_marker" d="m4.5 0h-9" fill="none" marker-end="url(#arrow_rev)" marker-start="url(#arrow)" stroke="#000000" stroke-linecap="round" stroke-linejoin="round" stroke-opacity="0" stroke-width=".8"/>
		<g id="north_arrow">
			<path d="m0 0v50" fill="none" marker-start="url(#arrow_point)" stroke="#000000" stroke-width="4"/>
			<text y="-30" font-family="sans-serif" font-size="32px" text-anchor="middle" style="line-height:6px">N</text>
		</g>
		<path id="equi_triangle" transform="scale(3.8)" d="m0-5.7735-5 8.66h10z"/>
	</defs>
	<g id="wooded_areas" fill="#008c00" stroke="#005a00" stroke-width=".5">
		<path id="wald_misselberg" transform="translate(-998.92 -155.47)" d="m1241 957.2c1.4883-0.98022 0.254-4.9059-0.755-7.7809-1.0091-2.875-1.5902-4.2275-0.43-8.5743 1.1602-4.3468 3.1084-8.1165 4.4306-13.166s1.3391-10.045-1.4036-8.8772c-2.7427 1.1676-8.2025 8.4801-12.259 11.568s-6.6881 1.9214-9.1261 2.5846-4.6806 3.154-3.7655 5.1781 4.9707 3.5695 7.7403 6.1864c2.7697 2.6168 4.2113 6.2672 7.0403 9.0818 2.829 2.8146 7.0395 4.7801 8.5279 3.7998z"/>
		<path id="wald_weidiger_bach" transform="translate(-905.94 -65.317)" d="m1252 952.53c0.4431-1.8546-0.8311-3.1974-4.0642-3.5222s-7.0827 0.18916-10.787-3.2929-3.982-5.9639-4.9164-14.326c-6.6659 7.9657-13.306 15.9-17.675 17.739s-6.3867-2.4211-7.5213-7.7536c-1.1345-5.3325-1.3474-11.491-2.9901-14.619-1.6427-3.1284-4.6005-2.9871-5.7717 0.71834-1.1712 3.7055-0.4955 10.936 0.8775 17.785s3.4384 13.285 11.575 15.53 22.268 0.29431 30.472-1.8755 10.358-4.5275 10.801-6.3821z"/>
		<path id="wald_kalkofen" transform="translate(-832.97 -85.35)" d="m1258.8 1033.8c7.7551-5.1663 9.2621-18.958 11.411-26.701 2.1485-7.7435 4.9382-9.4378 6.0794-11.763 1.1411-2.3255 0.6336-5.2821 0.3446-9.0666s-0.3595-8.397-5.153-8.2512c-4.7936 0.14587-14.31 5.05-21.284 5.5197-6.9744 0.46968-11.405-3.4948-12.624-9.3893s0.7754-13.717-5.7828-20.358-21.48-12.031-27.423-10.818c-5.9433 1.2123-2.6669 8.8456-4.0711 16.345s-7.4313 14.294-5.9591 17.926c1.4722 3.6319 10.522 3.9604 17.692 7.3953s12.426 9.9659 13.945 18.392c1.5187 8.4258-0.6989 18.681 5.2092 25.585s19.861 10.352 27.616 5.1855z"/>
		<path id="wald_cramberg" transform="translate(-702.83 -21.929)" d="m1252.8 966.84c0.3077-0.84193 0.9229-2.5256-1.1695-3.4323s-6.892-1.0364-10.35-3.7326c-3.458-2.6961-5.573-7.9562-6.7838-15.249s-1.5153-16.606-2.2169-22.191-1.7864-7.4137-5.9321-7.868c-4.1457-0.45434-11.196 0.49493-17.074 0.80544-5.8774 0.31052-10.596-0.0168-11.463 0.3872-0.8672 0.40403 2.1328 1.5186 2.2034 3.9266 0.071 2.4079-2.8177 6.0998-3.4699 10.38-0.6522 4.2797 0.9346 9.101 2.4102 11.431s2.8349 2.1527 3.0552-0.1274c0.2203-2.2801-0.6984-6.6625-0.5807-10.744 0.1176-4.0812 1.2707-7.8564 5.8143-10.278 4.5437-2.4213 12.455-3.48 16.695-2.2039s4.7824 4.881 4.4393 10.34c-0.3431 5.4593-1.5712 12.763-1.4801 18.781 0.091 6.018 1.5003 10.732 4.414 13.958 2.9137 3.2263 7.3064 4.946 11.1 5.8092 3.7934 0.86315 6.9312 0.85641 8.5057 0.85302 1.5746-3e-3 1.5746-3e-3 1.8822-0.84529z"/>
		<path id="wald_kies_daubach" transform="translate(-666.5 -41.689)" d="m1220.4 952.18c-5.7283 2.7796-7.057 22.802-12.132 19.053-5.0748-3.7491 1.1942-27.813-0.5922-32.389-3.1243-8.0035-13.42-39.303-21.295-36.687-2.1433 0.71186-2.1448 8.1484-5.8011 8.993-4.5002 1.0395-9.6645-8.2144-14.353-8.7661-4.6882-0.55168-7.5267 3.7334-12.574 6.3965-5.0476 2.6632-12.285 3.7014-13.67 13.363-0.5321 3.7133 5.4404 27.827 3.7019 29.254-1.3603 1.1165-9.6014-13.291-13.765-15.189-8.0004-3.6468-9.2196 0.26082-5.1229 3.139 4.5417 3.1908 6.5216 13.51 8.5627 16.989 6.241 10.64 18.07 20.636 22.19 23.642 4.1201 3.0064 10.425 4.6459 15.609 3.4238 5.1846-1.2221 9.1932-5.2658 7.4922-7.9238-1.7011-2.658-9.0192-3.8286-14.775-9.332-5.7562-5.5033-9.7799-15.241-11.504-21.852s-1.1483-10.076 1.914-13.844c3.0622-3.7678 8.4853-7.6991 15.496-8.8086 7.0109-1.1095 15.448 0.65482 21.18 5.3027 5.7312 4.6479 8.7132 12.159 11.248 16.109 2.5348 3.9507-2.6445 17.742-1.9121 15.042 0.7324-2.7003-2.6132 14.905 2.5297 18.28 4.8002 3.15 10.559 3.4906 16.592-4.6242 0.831-4.6005 3.5702-8.7566 6.6831-12.237 2.1227-2.1741 3.61-0.95428 4.8925-1.5039 1.2826-0.54963 2.3257-2.8697 3.7676-3.6777s3.2746-0.0938 4.293 1.3633c1.0184 1.4571 1.2182 3.644 3.5566 4.4043 2.3385 0.76025 6.7834 0.0812 10.287-0.48047 3.5037-0.56172 6.0511-1.0039 5.9844-2.7012-0.067-1.6973-2.7467-4.6495-5.9883-5.5684s-7.0442 0.19566-9.2168-0.23633c-2.1725-0.43198-2.7151-2.4117-3.6582-4.4863-0.9431-2.0746-7.8489-10.827-10.007-11.973-0.9441-0.50167-6.3299-0.8529-7.0947-0.19328-1.9095 1.6468 5.4448 13.293 5.4448 13.293s-3.5077 2.2618-7.963 4.4236z"/>
		<path id="wald_franzosenlay" transform="translate(-643.36 -21.342)" d="m1251.8 966.43c2.1549-1.4356 2.8647-2.8648 2.6391-4.1158-0.2255-1.251-1.3863-2.3237-4.3196-2.0581-2.9333 0.2656-7.6385 1.8694-11.451 1.2848-3.8123-0.58457-6.7308-3.3573-8.3189-7.3061-1.588-3.9488-1.8449-9.0723-4.0351-11.127-2.1902-2.0546-6.2619-1.0526-10.649-1.4398-4.3866-0.38717-8.8014-2.117-10.872-0.98634-2.0703 1.1307-1.6143 5.066 1.9889 7.2824s10.311 2.6315 14.356 5.9742c4.0456 3.3427 5.4071 9.6031 8.5136 12.895 3.1064 3.2922 7.9304 3.6028 12.168 3.0357 4.237-0.56703 7.8241-2.0039 9.979-3.4395z"/>
		<path id="wald_altendiez" transform="translate(-616.93 -42.356)" d="m1223.5 958.63c1.8346-3.2632 4.4908-5.0263 7.1893-6.1396 2.6986-1.1133 5.4391-1.5765 7.0883-2.5552 1.6493-0.97874 2.207-2.4729-0.1901-3.0962-2.397-0.62338-7.7483-0.37596-11.282 0.85583-3.5339 1.2318-5.2494 3.4476-6.5968 5.4121s-2.3143 3.656-3.0236 6.5378c-0.7093 2.8818-1.1163 6.7208-0.5815 8.9198 0.5347 2.199 2.0356 2.5265 3.2925 0.30886 1.2569-2.2177 2.2696-6.9801 4.1042-10.243z"/>
		<path id="wald_fachingen" transform="translate(-589.61 -34.699)" d="m1232.2 961.6c-2.4043-0.15581-6.76 2.0131-9.896 2.1921-3.1361 0.17901-5.0523-1.6319-6.3118-3.5092s-1.8624-3.8209-3.014-6.2795-2.8517-5.4318-4.7195-4.8351-3.9026 4.7633-4.0882 7.9735c-0.1856 3.2103 1.4782 5.4639 3.1133 6.7264 1.635 1.2625 3.2413 1.5338 5.6903 2.7909 2.449 1.2571 5.7407 3.5001 9.637 3.674 3.8963 0.17391 8.3972-1.7212 10.422-3.909 2.0242-2.1879 1.5717-4.6683-0.8326-4.8241z"/>
		<path id="wald_dehrner_auwald" transform="translate(-358.98 35.826)" d="m1231.2 967.64c-4.2077-1.3459-7.9506-3.1898-10.58-5.1978s-4.1443-4.18-5.5168-6.4134c-1.3724-2.2334-2.602-4.5281-2.0004-7.6523s3.0342-7.0776 5.1173-13.284c2.0831-6.2065 3.8163-14.665 0.1729-21.273-3.6434-6.6086-12.664-11.367-18.651-8.9234-5.9871 2.4439-8.9413 12.09-10.374 20.53-1.4328 8.4394-1.3441 15.672 0.879 21.176 2.2231 5.5045 6.5805 9.2809 10.052 10.749 3.472 1.4684 6.0584 0.62883 8.6448-0.21079 2.1659 4.8434 4.3317 9.6868 10.035 12.952 5.7033 3.2651 14.944 4.9519 19.829 4.7869s5.4139-2.1815 3.3423-3.6136c-2.0715-1.4322-6.7432-2.2798-10.951-3.6257z"/>
		<path id="wald_struth" transform="translate(-263.33 95.63)" d="m1217.5 968.25c0.7684-1.646 1.3876-3.6462 0.9396-5.7323s-1.9632-4.2581-3.3357-6.4915c-1.3724-2.2334-2.602-4.5281-4.2482-5.4886-1.6462-0.96054-3.7088-0.58694-4.9913 1.3929s-1.7847 5.5656-3.7113 8.4451-5.2777 5.0529-8.6288 7.2262c0.8444 1.8158 1.6888 3.6316 2.9193 2.9849 1.2305-0.64668 2.847-3.7558 5.9869-3.8508 3.1398-0.095 7.8029 2.8243 10.593 3.6381 2.7904 0.81378 3.7078-0.47795 4.4762-2.124z"/>
		<path id="wald_seelbach" transform="translate(-209 106.91)" d="m1228 976.56c-1.4465-1.5442-4.413-3.8537-7.1767-4.2007-2.7636-0.34702-5.3243 1.2684-7.21 1.388-1.8856 0.11955-3.0962-1.2568-6.0133-1.9302s-7.5405-0.64392-8.1627 0.43573c-0.6223 1.0797 2.7567 3.2094 4.9058 5.0892s3.0681 3.51 3.9872 5.14c3.2929-2.087 6.5857-4.1739 8.987-3.7734 2.4013 0.40052 3.911 3.2885 5.7594 3.862 1.8483 0.57349 4.0354-1.1676 5.1657-2.4276 1.1304-1.26 1.2041-2.0389-0.2424-3.5831z"/>
		<path id="wald_aumenau" transform="translate(-153.65 158.63)" d="m1189.4 953.79c-1.6573 1.8566-3.9866 3.7558-4.3277 6.0247-0.3411 2.2689 1.306 4.9074 3.4671 4.4887s5.3505-4.5631 7.9869-6.8329c2.6365-2.2699 6.9647-4.6788 11.632-3.5594 4.6673 1.1194 9.2105 5.0659 8.3092 8.7621-0.9012 3.6962-7.4657 6.7944-14.139 7.3225-6.6733 0.52817-12.343-1.3362-13.185 1.4001-0.8413 2.7363 4.2091 10.031 11.478 11.827 7.2693 1.7965 20.63-1.5416 26.393-5.8362s5.4706-9.9307 4.9762-14.619-1.1909-8.4297-4.626-9.3434c-3.4351-0.91363-9.6087 1.0001-11.964-1.339-2.3552-2.3391-0.8922-8.931-2.5738-13.012s-6.508-5.6503-10.332-3.6931c-3.8241 1.9572-6.6459 7.4411-8.5495 11.09-1.9037 3.6491-2.8889 5.4628-4.5463 7.3194z"/>
		<path id="wald_Fuerfurt" transform="translate(-112.25 88.296)" d="m1197.8 947.28c-3.4385 3.292-8.308 8.846-11.56 13.624s-4.8863 8.7797-7.6578 13.24c-2.7714 4.46-7.297 10.155-9.9135 13.214-2.6166 3.0597-5.0437 5.5318-5.6471 7.4695-0.6035 1.9377 0.7628 3.2408 1.8673 3.1066 1.1045-0.13415 3.4561-2.2711 5.7728-2.8452 2.3167-0.57412 7.9324-0.44521 9.3696-1.7218 1.4373-1.2766 0.8932-5.2177 2.688-10.505 1.7949-5.287 5.8379-12.577 9.881-19.867 2.9776 1.6418 5.9551 3.2835 9.3373 4.3054 3.3822 1.0219 7.1685 1.4238 9.5381 0.0262 2.3695-1.3976 3.3219-4.5948 1.2411-6.8029-2.0807-2.2081-7.1945-3.4271-12.308-4.6461 1.9162-1.9814 3.8324-3.9629 6.0304-6.0422s4.6779-4.2563 7.1578-6.4334c-0.6233-1.3716-1.2466-2.7433-2.6373-2.989-1.3906-0.24568-3.5486 0.63459-5.6313 1.5896-2.0826 0.95501-4.0897 1.9847-7.5281 5.2766z"/>
		<path id="wald_Kirschhofen" transform="translate(-115.32 -6.1393)" d="m1201.2 971.23c-4.4085 10.213-5.7838 21.284-3.99 31.32 1.7937 10.036 6.7562 19.038 10.452 21.223 3.6962 2.1849 6.1258-2.4473 9.2826-6.431s7.0408-7.3188 9.4601-10.503c2.4194-3.1842 3.374-6.2171 1.0988-9.5305-2.2752-3.3134-7.7801-6.907-9.0461-9.8507-1.266-2.9436 1.7071-5.2372 3.9686-7.9491 2.2614-2.7119 3.8112-5.842 4.7822-9.5509s1.363-7.9965 2.7739-11.201 3.8406-5.3251 7.1743-7.8322c3.3337-2.5071 7.5713-5.4004 7.1945-7.8765s-5.368-4.5351-10.114-4.5892c-4.7456-0.0541-9.2453 1.8967-15.216 7.5498-5.9711 5.6531-13.413 15.008-17.821 25.221z"/>
		<path id="wald_Weil" transform="translate(-81.659 32.228)" d="m1196.7 970.26c-2.7246 2.0158-6.9195 3.9232-9.2571 7.4876-2.3376 3.5643-2.8179 8.7853-1.6303 10.494 1.1876 1.7087 4.043-0.0949 7.9554-3.7046 3.9124-3.6096 8.8817-9.0251 18.469-11.602 9.587-2.5764 23.791-2.3135 32.267-4.5202s11.224-6.8827 11.458-11.432c0.2339-4.5498-2.0462-8.973-5.0492-9.9357s-6.7289 1.5351-10.76 1.8455c-4.0314 0.31041-8.3682-1.5666-10.906-0.63205-2.5378 0.93459-3.2768 4.6807-5.991 3.9851-2.7143-0.69553-7.4036-5.8326-11.305-8.9971-3.9017-3.1645-7.0155-4.3562-8.5537-0.56951-1.5382 3.7867-1.5008 12.551-2.1092 17.996s-1.8626 7.569-4.5872 9.5848z"/>
		<path id="wald_tempelchen" transform="translate(-2.9557 -1.1541)" d="m1202.7 946.47c-3.9088 2.7234-7.1196 10.106-8.0585 14.064s0.394 4.4915 1.7701 4.917c1.376 0.42543 2.7951 0.74265 5.1806-1.2251s5.7374-6.2206 8.8279-6.4475 5.9196 3.572 9.398 4.7851c3.4783 1.2131 7.606-0.15978 10.292-2.3169s3.9297-5.0984 4.1224-7.4368-0.6659-4.074-3.1829-3.582c-2.5171 0.49194-6.6928 3.2114-9.507 3.3143-2.8143 0.10294-4.2671-2.4105-7.297-4.635s-7.6366-4.1599-11.545-1.4365z"/>
		<path id="wald_Selters" transform="translate(0 -5.7253)" d="m1324.9 934.9c-4.1756 0.50472-11.662 3.5311-16.414 1.9121-4.7525-1.6189-6.7712-7.8827-12.806-9.139-6.0347-1.2562-16.085 2.4954-28.651 3.1459s-27.648-1.8-34.677-0.85645c-7.0286 0.94359-6.0036 5.2813-3.4863 6.9244 2.5172 1.6431 6.5266 0.59153 9.1004 2.2505 2.5737 1.659 3.7119 6.0284 9.1551 6.025 5.4432-3e-3 15.191-4.3798 19.226-3.9288s2.3563 5.7296 4.1643 10.539 7.1025 9.1491 12.029 8.6442c4.9262-0.50484 9.484-5.8544 13.433-5.1627 3.9495 0.69165 7.2905 7.4244 11.161 11.054s8.2716 4.1553 12.515 3.1694 8.3289-3.4837 7.9774-7.8915c-0.3515-4.4078-5.1401-10.725-5.3499-14.903-0.2097-4.1779 4.1594-6.2157 5.9116-8.243 1.7522-2.0274 0.8874-4.0443-3.2882-3.5396z"/>
		<path id="wald_roederheide" transform="translate(871.45 72.975)" d="m1202.6 946.11c-2.4493 1.1881-1.9727 4.9152-1.9707 7.5245 0 2.6094-0.4709 4.1007 0.2657 4.5097 0.7365 0.40897 3.541-0.56169 6.5197-2.7064 2.9787-2.1448 5.5259-4.8157 4.2678-6.9903-1.2582-2.1746-6.6332-3.5255-9.0825-2.3374z"/>
		<path id="wald_friedelhausen" transform="translate(903.35 70.009)" d="m1209 938.99c-3.075 2.5866-5.9995 5.2719-8.0268 8.0804-2.0274 2.8085-3.1572 5.7399-0.6675 5.8705 2.4898 0.13053 7.9324-2.2486 11.97-6.743 4.037-4.4945 5.0799-9.3357 4.0524-10.809-1.0274-1.4732-4.2526 1.0145-7.3276 3.6011z"/>
		<path id="wald_michelbach" transform="translate(1091 -287.96)" d="m1207.5 925.62c-2.8438-0.59454-6.0313 3.412-7.8888 9.2006-1.8574 5.7886-2.3845 13.358 3.7069 18.084s17.848 6.4665 26.049 4.6798c8.2018-1.7868 10.548-6.5776 7.2854-10.729-3.2629-4.151-12.012-7.1079-17.946-11.349-5.9333-4.2414-8.3632-9.2921-11.207-9.8867z"/>
		<path id="wald_kernbach" transform="translate(1055.3 -362.58)" d="m1213.3 933.61c-4.4775-1.0304-12.385-1.3438-15.8-0.0912-3.4151 1.2526-2.3367 4.0711 0.6138 5.3933 2.9504 1.3222 7.7727 1.1481 11.392 2.9527s5.8547 5.3041 8.4991 6.4005c2.6444 1.0964 4.9483-0.50796 5.2685-2.7019 0.3203-2.1939-1.4848-4.732-2.9817-6.9783-1.4969-2.2464-2.5142-3.9448-6.9918-4.9751z"/>
		<path id="wald_bad_laasphe" transform="translate(898.67 -690.96)" d="m1212.8 913.96c-5.1239-8.6364-10.093-9.9099-12.815-4.275s-3.1978 18.178 0.9888 28.208c4.1865 10.031 13.035 17.55 19.545 22.667 6.5096 5.1173 10.367 7.6286 13.248 7.3487 2.8814-0.27988 3.9773-3.2576 2.824-6.023-1.1533-2.7655-4.526-4.9603-9.0308-14.349-4.5048-9.3887-9.6358-24.941-14.76-33.577z"/>
	</g>
	<g id="tributaries" fill="none" stroke="#00caff" stroke-linecap="round" stroke-linejoin="round" stroke-width="2">
		<path id="river_Kleebach" d="m1773.6 1150.8c-0.4018 8.5752-0.8035 17.15-5.3026 21.341-4.4991 4.1914-13.096 4.0009-17.583 7.9087-4.4865 3.9078-4.861 11.913-2.8169 18.764 2.044 6.8509 6.5054 12.547 4.5651 17.738-1.9404 5.1914-10.282 9.879-14.556 15.288s-4.4818 11.536-4.6889 17.664"/>
		<path id="river_Wieseck" d="m1856.3 1176.3c1.5568 5.4503 3.1133 10.9 4.9829 14.321 1.8697 3.4212 4.0521 4.8159 10.757 5.0863s17.927-0.5826 29.496-2.4502c11.569-1.8677 23.478-4.749 36.708-4.2106 13.231 0.5383 27.78 4.4961 35.512 9.6459s8.6445 11.49 12.665 13.625 11.147 0.066 16.828 2.2895c5.6807 2.2236 9.9144 8.7382 16.205 11.663 6.2908 2.9248 14.638 2.2605 19.076 5.5311 4.438 3.2707 4.9676 10.475 5.4972 17.678"/>
		<path id="river_Lumda" d="m1996.8 1088.7c3.1383 4.8179 6.2758 9.6345 10.345 9.7143 4.0694 0.08 9.0708-4.5759 14.865-4.3216 5.7941 0.2544 12.379 5.4178 16.533 11.58 4.1543 6.1624 5.8782 13.323 11.754 14.708 5.8759 1.3853 15.903-3.0032 21.814-6.6222 5.9113-3.6191 7.7071-6.4688 12.86-6.1953s13.66 3.67 20.494 2.928c6.8338-0.7421 11.994-5.622 19.522-5.4253 7.5282 0.1966 17.422 5.4691 20.523 11.884s-0.5911 13.973 1.0829 18.128 8.7122 4.9053 13.786 6.9513 8.1839 5.3861 15.715 8.3401c7.5313 2.9541 19.483 5.5226 27.764 6.3283s12.889-0.1509 16.901 2.3149c4.0125 2.4657 7.4283 8.3521 11.913 11.653 4.4843 3.301 10.036 4.0172 14.746 6.2131 4.7099 2.1959 8.5771 5.8704 10.308 10.408s1.326 9.9374 3.0833 14.695c1.7574 4.7576 5.6757 8.8724 6.4843 13.227s-1.4913 8.9485-0.3206 13.053c1.1708 4.1048 5.8107 7.7191 7.5217 11.254s0.4939 6.9891-0.723 10.443"/>
		<path id="river_Zweester" d="m2121.7 996.71c5.3543 2.4392 10.707 4.8778 15.893 5.9282 5.1858 1.0505 10.204 0.7134 13.442-0.6619s4.6965-3.789 7.1165-3.1315c2.42 0.65746 5.7999 4.3852 10.791 6.2817 4.9906 1.8966 11.591 1.9627 17.464 3.7378 5.8731 1.7751 11.018 5.2582 14.018 8.9567s3.8554 7.6116 7.0901 8.7053c3.2346 1.0937 8.8476-0.6308 13.787-0.092 4.9397 0.5385 9.2046 3.339 13.146 3.3547 3.9412 0.016 7.5592-2.7525 11.957-3.6347 4.3974-0.8823 9.5726 0.1212 16.656-0.4131 7.0829-0.5342 16.074-2.6058 22.352-2.3797 6.2781 0.226 9.8431 2.7486 13.596 3.7496 3.7527 1.001 7.693 0.4812 11.714 0.8122 4.0215 0.331 8.1233 1.5122 13.059 0.7675 4.9359-0.7446 10.706-3.415 13.438-1.4974s2.4258 8.4221 2.7817 14.38c0.356 5.9584 1.373 11.368 0.6196 14.806-0.7535 3.439-3.2771 4.9061-2.936 8.4383 0.3412 3.5321 3.5471 9.1274 4.3861 15.37 0.8391 6.2424-0.688 13.132 0.8462 17.698 1.5343 4.5659 6.1292 6.8086 8.467 10.528s2.4212 8.9177 3.6369 13.599 3.5617 8.8422 3.1776 13.425c-0.3842 4.5826-3.4977 9.5829-3.306 14.683 0.1916 5.1002 3.6882 10.298 4.4548 14.416 0.7665 4.1183-1.1959 7.1577-0.6424 10.422s3.6216 6.7515 5.2148 11.016c1.5932 4.2647 1.7121 9.3062 4.4655 12.294s8.1401 3.9219 13.526 4.856"/>
		<path id="river_Ohm" d="m2477.3 759.17c3.6508-0.95875 7.3009-1.9173 8.6761-0.46146 1.3752 1.4558 0.4763 5.3257 0.9957 9.7017 0.5195 4.376 2.4567 9.2595 2.2339 14.723s-2.6043 11.504-2.6324 15.934c-0.028 4.4306 2.2963 7.2475 4.8552 8.1365 2.559 0.88903 5.3523-0.14896 8.1451-1.1868"/>
		<path id="river_Wetschaft" d="m2484.8 716.88c-1.1976-6.169-2.3949-12.337-2.5804-18.123-0.1855-5.7862 0.6415-11.187-0.3909-14.206s-3.9263-3.6566-4.6968-5.2262c-0.7704-1.5696 0.5836-4.0712-0.5994-5.9273-1.1829-1.8561-4.904-3.0666-5.5996-9.3255-0.6955-6.2589 1.6358-17.566 2.2716-26.164 0.6358-8.5976-0.4244-14.485-2.5581-20.36-2.1337-5.8744-5.3411-11.735-5.6367-15.34-0.2956-3.6047 2.3207-4.9514 2.7339-7.5713 0.4133-2.6199-1.3767-6.514-1.2457-9.205 0.1311-2.691 2.1837-4.1774 2.699-5.5613 0.5153-1.3839-0.5073-2.6663 0.7117-4.8689 1.2191-2.2026 4.6795-5.3231 4.5988-8.5302-0.081-3.2071-3.7025-6.4968-5.5497-10.804-1.8472-4.3074-1.9154-9.6277-1.1146-15.966 0.8007-6.3378 2.4715-13.699 4.8161-18.411s5.363-6.7759 7.6655-8.9062c2.3025-2.1303 3.8894-4.3271 4.7455-7.8281 0.856-3.5009 0.9811-8.3065 2.3437-11.065s3.9616-3.4693 6.2442-5.1058c2.2825-1.6364 4.249-4.1989 6.2157-6.7616"/>
		<path id="river_Treisbach" d="m2468.3 553.37c-4.968-5.5368-9.9368-11.075-15.118-12.394-5.1811-1.3192-10.574 1.5815-14.409 0.39602-3.8357-1.1855-6.1146-6.4583-15.005-8.5069-8.8905-2.0486-24.392-0.87138-29.04-2.729-4.6488-1.8576 1.5566-6.7497 4.6197-12.655s2.9838-12.825 1.6626-20.09c-1.3211-7.2645-3.8843-14.873-7.2117-20.309s-7.4194-8.6973-11.649-13.766-8.597-11.944-13.344-16.111c-4.7466-4.1662-9.8727-5.6217-13.493-9.1774-3.6204-3.5557-5.734-9.2121-6.0884-18.728-0.3544-9.5161 1.051-22.891 1.3348-31.979 0.2837-9.0881-0.5545-13.889-3.4042-21.563-2.8497-7.6736-7.7111-18.219-12.66-26.382-4.9483-8.1632-9.9834-13.943-15.56-20.648-5.576-6.7053-11.692-14.335-17.81-21.967"/>
		<path id="river_Solmsbach" d="m1459.9 974.74c-0.557 0.64795 0.7021 10.602-2.6179 14.472-3.3199 3.8702-12.806 14.895-17.07 21.977-4.6537 7.7291-7.3067 15.446-12.75 20.5-5.4436 5.0539-13.679 7.4457-17.497 13.786s-3.2193 16.629-2.8055 27.052c0.4138 10.423 0.6426 20.977-3.3719 31.462-4.0144 10.485-12.27 20.897-15.597 32.921-3.3266 12.024-1.723 25.657-3.6816 35.357-1.9586 9.7-7.479 15.467-9.1518 21.916-1.6729 6.4498 0.5014 13.581 0.2398 19.138s-2.9586 9.54-3.9351 15.457c-0.9764 5.917-0.2323 13.766 0.5117 21.615"/>
		<path id="river_Weil" d="m1155.5 982.44c-0.6848 2.2958-1.3694 4.5908 0.2608 6.1551s5.5734 2.398 7.176 9.2926c1.6026 6.8945 0.8654 19.848 0.3413 28.382-0.524 8.5331-0.835 12.645 3.0733 17.991 3.9084 5.3458 12.034 11.925 16.834 18.9s6.274 14.344 12.172 19.624c5.8975 5.2799 16.217 8.4711 24.328 16.818 8.111 8.3463 14.014 21.846 15.81 33.447 1.7966 11.601-0.5123 21.303-1.9216 29.792-1.4094 8.4898-1.9191 15.767-1.5909 25.705 0.3282 9.9381 1.4941 22.536 0.2383 32.641-1.2557 10.105-4.9328 17.716-8.1742 22.258-3.2414 4.5411-6.0474 6.0121-8.8539 7.4834"/>
		<path id="river_Emsbach" d="m816.94 960.04c2.0753 1.8274 4.1499 3.6541 5.6086 6.7337 1.4588 3.0797 2.3033 7.4132 2.9905 12.112s1.2167 9.7591 5.3202 13.046c4.1034 3.2865 11.776 4.7962 12.746 7.3377 0.97001 2.5414-4.7645 6.1151-6.939 9.8608-2.1745 3.7458-0.79093 7.6645 0.50536 12.113s2.5043 9.4228 0.61257 20.015c-1.8918 10.592-6.8812 26.792-11.121 36.124-4.24 9.332-7.7293 11.792-6.6449 14.348s6.7414 5.2076 9.2776 9.4495 1.9529 10.074 5.722 13.323c3.7692 3.2494 11.889 3.9172 13.864 7.9432s-2.1955 11.41-1.1294 19.174c1.0661 7.7646 7.3672 15.908 10.263 21.894 2.8958 5.9854 2.387 9.8119 4.0101 11.699 1.6231 1.8871 5.3768 1.8355 6.4626 7.2935 1.0857 5.4581-0.49551 16.424 0.78747 23.976s5.4278 11.687 6.7441 14.323c1.3162 2.6359-0.19727 3.771-1.5122 4.9679-1.3149 1.1969-2.4313 2.4557-1.6453 3.5641 0.78593 1.1083 3.4735 2.067 6.001 5.483 2.5275 3.4161 4.8927 9.2829 7.259 15.153"/>
		<path id="river_Woersbach" d="m829.27 1102.1c-4.9517 5.6038-9.9031 11.207-11.546 16.285-1.6427 5.0779 0.023 9.6284-0.64916 18.869s-3.6815 23.17-4.2604 33.648c-0.57889 10.478 1.2723 17.502 1.1069 24.18s-2.3468 13.007-1.8428 18.558 3.6925 10.322 5.3358 16.237 1.7419 12.974 1.8405 20.031"/>
		<path id="river_Aar" d="m657.17 926.57c2.4306 1.1146 4.8604 2.2288 6.8628 6.1016s3.5792 10.505 5.6804 16.448c2.1012 5.9435 4.725 11.195 4.0813 16.281-0.64368 5.0857-4.5541 10.003-5.7005 14.663-1.1464 4.6598 0.47124 9.0602 2.8752 12.61 2.404 3.55 5.5933 6.2497 5.1933 9.8767-0.40001 3.627-4.3883 8.1821-5.5109 12.127-1.1226 3.9445 0.61984 7.2772-0.12311 9.745-0.74294 2.4677-3.971 4.0717-4.5959 8.3689-0.62488 4.2971 1.3534 11.286-0.32305 16.128-1.6765 4.8429-7.0076 7.541-7.4745 12.562-0.46691 5.0208 3.9301 12.362 3.1395 18.501-0.79059 6.139-6.7681 11.076-11.822 13.519-5.0535 2.443-9.1831 2.3917-11.612 6.2685-2.4292 3.8768-3.1564 11.68-5.1786 15.608s-5.3401 3.9791-7.9358 6.6512-4.4677 7.9636-9.0076 10.097c-4.54 2.1339-11.749 1.1102-16.558 6.4527s-7.2173 17.05-16.838 25.643c-9.6206 8.5931-26.453 14.072-35.69 19.713-9.2369 5.6413-10.876 11.444-11.355 16.37-0.47929 4.9262 0.20079 8.9757-1.8899 12.348-2.0906 3.372-6.9518 6.0678-8.6476 10.72-1.6957 4.6527-0.22564 11.26-2.0086 16.09-1.783 4.8299-6.819 7.883-11.855 10.936"/>
		<path id="river_Perf" d="m2174.8 278.41c-4.8503 3.2844-9.7006 6.5687-13.677 11.255-3.9763 4.6862-7.0778 10.773-9.3576 11.777-2.2799 1.0039-3.7384-3.0761-6.5473-4.6539s-6.9681-0.6519-10.903-0.71151c-3.9349-0.0596-7.6454-1.1052-11.798-1.3485-4.1526-0.24325-8.7468 0.31636-10.811 2.8136-2.0645 2.4972-1.5984 6.9307-3.3848 8.3464-1.7863 1.4157-5.8259-0.18569-9.2077 2.1383-3.3818 2.324-6.1041 8.573-10.635 12.515-4.5313 3.9416-10.872 5.5759-13.861 10.031s-2.6253 11.731 0.9384 20.517c3.5637 8.7866 10.326 19.084 10.896 26.636s-5.0537 12.36-10.148 15.805c-5.0947 3.4453-9.6607 5.5279-13.614 8.9556s-7.2917 8.1997-13.315 13.395c-6.023 5.1953-14.73 10.814-18.885 16.296-4.1552 5.4822-3.7579 10.826-2.3163 14.405 1.4415 3.5787 3.9262 5.3919 3.9665 8.4369 0.04 3.045-2.3624 7.3222-2.469 11.104-0.1066 3.782 2.0817 7.0679 0.8244 9.8235s-5.9598 4.982-10.753 9.871c-4.7929 4.8889-9.6752 12.439-15.337 15.257-5.6618 2.8173-12.104 0.90115-15.118 2.4472-3.0137 1.546-2.5973 6.5533-4.9406 8.8419-2.3433 2.2886-7.4468 1.8591-7.8227 7.4536-0.376 5.5945 3.9765 17.211 2.7924 23.473-1.1842 6.2616-7.905 7.1686-11.451 9.1364-3.5462 1.9678-3.9164 4.9952-4.2865 8.0217"/>
		<path id="river_Muehlbach" d="m267.22 831.83c-0.85517 5.0034-1.7102 10.006-3.7434 13.692s-5.2447 6.0575-3.0683 9.3994 9.7394 7.6534 13.634 12.372c3.8947 4.7181 4.1218 9.8419-0.39297 11.929-4.5148 2.0874-13.772 1.139-18.423 2.3827s-4.6937 4.6786-7.7049 5.6507c-3.0113 0.97211-8.9918-0.51795-12.664 0.48156-3.672 0.99952-5.0337 4.4883-4.0327 7.7373 1.001 3.249 4.3633 6.2576 5.0715 9.4664s-1.2364 6.618-3.6468 7.7916c-2.4104 1.1736-5.2876 0.11125-7.1615 0.59728-1.8739 0.48604-2.743 2.5203-3.0126 4.7341-0.2696 2.2138 0.0599 4.6062-3.0209 7.1704-3.0808 2.5641-9.5719 5.3011-14.393 10.157-4.8211 4.8562-7.9709 11.83-12.251 18.08-4.2802 6.2495-9.6904 11.774-10.307 17.026-0.61697 5.2522 3.5585 10.23 7.0416 17.183 3.4831 6.9529 6.274 15.88 6.8792 23.744 0.60524 7.8646-0.97468 14.667-5.3682 22.413s-11.6 16.437-16.617 24.011c-5.0169 7.5737-7.8434 14.029-8.5297 22.045-0.68634 8.0155 0.76717 17.59 3.0232 24.758 2.256 7.1682 5.3137 11.929 4.0579 16.892-1.2558 4.9632-6.8242 10.129-7.885 14.729s2.3852 8.6345 4.268 12.806c1.8828 4.1716 2.2032 8.4805 0.62163 11.193s-5.0654 3.8284-6.7878 5.1785-1.6826 2.9325-0.48255 5.3001c1.2 2.3675 3.5593 5.5197 2.4881 6.709-1.0712 1.1894-5.5735 0.4166-8.3132 1.3186-2.7397 0.902-3.7161 3.4786-7.602 8.7142-3.886 5.2357-10.68 13.129-14.895 19.421s-5.8502 10.979-8.2189 14.986c-2.3687 4.0066-5.471 7.3318-7.5169 11.937-2.0458 4.6053-3.0349 10.489-4.0239 16.373"/>
		<path id="river_Doersbach" d="m345.67 880.48c1.9289 3.9864 3.8572 7.9714 2.4136 11.973-1.4436 4.0011-6.2584 8.0192-8.5049 11.735-2.2465 3.7154-1.9246 7.1264-3.9435 11.279-2.0189 4.1522-6.3784 9.0463-10.847 14.093-4.4683 5.0467-9.0452 10.246-10.019 15.28-0.97353 5.034 1.6555 9.9013 2.7124 14.525s0.54214 9.0047 4.0028 12.717c3.4606 3.7124 10.895 6.7569 17.417 6.9675s12.131-2.4118 14.902-0.66647 2.7029 7.8571 5.9778 12.403c3.275 4.5454 9.8911 7.5243 10.321 11.12 0.43015 3.5958-5.3248 7.8087-5.8365 14.393-0.51172 6.5843 4.2194 15.538 7.8528 24.597 3.6334 9.0592 6.1692 18.223 12.619 23.897s16.811 7.8576 26.583 10.089c9.7718 2.2318 18.952 4.511 23.621 11.034 4.6689 6.5229 4.8265 17.288 5.2184 26.904s1.0178 18.082 4.004 29.223c2.9862 11.141 8.3318 24.956 10.153 36.936 1.8209 11.98 0.11741 22.124-0.33624 31.452-0.45366 9.3282 0.34235 17.84-1.1292 22.985-1.4715 5.1453-5.2108 6.9254-12.574 7.7358-7.363 0.8103-18.35 0.6506-28.633-0.4049-10.283-1.0556-19.861-3.0072-26.249-1.4532-6.388 1.5539-9.5839 6.6133-12.78 11.672"/>
		<path id="river_Ohe" d="m2222.9 793.36c5.2247-2.2157 10.449-4.4312 12.032-7.1066 1.5837-2.6754-0.4736-5.8118-4.6645-15.859-4.191-10.047-10.515-27.003-16.026-35.671s-10.209-9.0454-15.858-16.507c-5.6492-7.4616-12.248-22.006-15.431-31.976-3.1835-9.9704-2.9499-15.361-1.8463-19.627 1.1037-4.2667 3.0771-7.4069 1.4038-9.3956-1.6732-1.9887-6.9952-2.8262-8.2282-9.3545-1.233-6.5283 1.6236-18.747 1.8078-27.549 0.1842-8.8022-2.305-14.187-6.9782-19.204-4.6733-5.0163-11.531-9.663-15.538-13.423-4.0074-3.7603-5.1638-6.6344-6.3208-9.5098"/>
		<path id="river_Salzboede" d="m2068.2 1031.4c-5.5206-4.3693-11.042-8.7393-17.589-19.711-6.5467-10.971-14.117-28.543-16.804-42.298-2.687-13.756-0.4894-23.693-1.1628-32.439-0.6733-8.7456-4.2182-16.299-2.2369-20.373 1.9814-4.0744 9.4884-4.6682 13.266-6.8078 3.7772-2.1395 3.8249-5.8254 7.1777-12.721 3.3528-6.8959 10.01-16.999 11.718-26.781 1.7082-9.7813-1.5338-19.236-3.2009-27.42-1.667-8.1839-1.7578-15.093-3.1774-22.311-1.4197-7.2177-4.1691-14.746-3.3022-22.071 0.867-7.3247 5.3506-14.445 3.8895-19.213-1.4611-4.7686-8.8682-7.1852-12.795-13.101-3.9267-5.9156-4.3715-15.33-7.0262-21.703-2.6548-6.3728-7.5173-9.7008-11.265-11.326-3.7474-1.6251-6.3688-1.5424-8.3133-2.4402-1.9444-0.89775-3.2073-2.7764-6.2061-4.0624-2.9989-1.286-7.7385-1.9797-12.912-6.9622s-10.783-14.254-19.012-19.678c-8.2289-5.4239-19.077-6.998-23.63-12.504-4.5525-5.5061-2.8075-14.944-7.9278-20.103-5.1202-5.159-17.106-6.0377-25.799-9.5508-8.6927-3.5132-14.091-9.6614-19.063-18.776-4.972-9.1143-9.5167-21.194-15.73-26.844-6.2135-5.6507-14.095-4.8707-16.996-9.3334-2.901-4.4627-0.8198-14.166 0-20.745 0.8216-6.5793 0.3825-10.03-0.057-13.482"/>
		<path id="river_Allna" d="m2217.8 930.72c3.6405-14.077 7.2811-28.153 6.6482-38.487s-5.5403-16.923-4.5341-26.238c1.0061-9.3152 7.925-21.351 10.01-28.171 2.085-6.8195-0.6684-8.416-3.5649-10.271s-5.9359-3.9697-5.8041-11.018c0.1319-7.048 3.4367-19.035 2.377-25.363-1.0598-6.3277-6.483-6.9948-11.637-7.6368-5.1536-0.64202-10.034-1.2585-13.703 0.1-3.6689 1.3585-6.1264 4.6928-8.3291 5.5104s-4.152-0.88188-6.0851 0.6509c-1.9332 1.5328-3.8486 6.298-7.4481 5.5814-3.5996-0.71658-8.8841-6.9155-13.714-9.5578-4.8303-2.6423-9.2059-1.7265-14.17-3.903s-10.517-7.4464-12.48-12.863c-1.9625-5.4162-0.3332-10.978-0.4632-14.316s-2.0206-4.4527-2.2749-7.3675c-0.2543-2.9148 1.1291-7.6297-0.8377-12.817-1.9669-5.1872-7.2845-10.846-9.4821-17.375-2.1975-6.5288-1.273-13.924-0.2151-19.419s2.249-9.0866 1.1472-14.245c-1.1017-5.1583-4.4975-11.885-8.4197-14.557-3.9221-2.672-8.3705-1.2881-10.005-3.4683-1.6343-2.1802-0.4535-7.9254-3.6865-12.289-3.2329-4.3633-10.88-7.3439-15.67-12.59s-6.72-12.759-10.192-18.149c-3.4721-5.3897-8.4867-8.6553-13.502-11.922"/>
		<path id="river_Vers" d="m2030 917.47c-0.5427-0.47061-1.0865-0.94215-2.1736-2.0325-1.087-1.0904-2.7172-2.7996-6.8357-3.9631s-10.725-1.7804-14.662-3.2807c-3.9367-1.5003-5.2029-3.885-9.1389-3.1797-3.936 0.70529-10.541 4.5018-18.918 6.0402s-18.526 0.81811-27.458-1.7504c-8.932-2.5685-16.646-6.9857-19.763-10.27s-1.6324-5.436-1.8914-8.9907c-0.259-3.5547-2.2613-8.5132-6.7954-12.072-4.5341-3.5586-11.6-5.7159-18.221-7.5005-6.6206-1.7846-12.795-3.1962-17.562-5.5431-4.7668-2.3469-8.1249-5.6294-10.116-8.8492-1.9913-3.2198-2.6148-6.3767-3.2386-9.5349"/>
		<path id="river_Ulmbach" d="m1306.9 926.94c0.4504-2.7001 0.9009-5.401 0.6595-10.444s-1.1749-12.429-0.577-17.399c0.5979-4.97 2.7275-7.5226 5.1536-12.554 2.4262-5.0318 5.1489-12.543 7.0686-18.778 1.9196-6.2357 3.036-11.195 3.1112-14.603 0.075-3.4078-0.8918-5.2634-0.6724-7.144 0.2193-1.8806 1.6258-3.7846 3.6033-4.6039 1.9775-0.81931 4.5246-0.55382 7.6781-2.9643 3.1534-2.4105 6.9138-7.4967 11.475-11.898 4.5607-4.4018 9.9208-8.1184 14.594-10.466 4.6734-2.3477 8.6587-3.326 11.823-4.0126 3.1639-0.68665 5.5059-1.0816 7.7096-2.7895 2.2038-1.7079 4.27-4.729 5.0962-7.1219 0.8262-2.3929 0.4119-4.1584 1.8426-6.1956 1.4307-2.0372 4.7064-4.3446 5.6943-6.2857 0.9879-1.9411-0.3127-3.5171-1.772-6.2303s-3.0769-6.5634-3.3654-9.2384 0.7527-4.1734-0.1546-5.9257c-0.9073-1.7523-3.7643-3.7588-5.5327-7.7359-1.7683-3.9771-2.4469-9.9246-4.945-14.355-2.498-4.4306-6.8162-7.3432-7.5787-9.6462s2.0316-3.9947 5.1244-5.8323 6.4838-3.8208 8.9827-6.1537 4.1061-5.016 3.7268-7.0127c-0.3793-1.9968-2.7464-3.3075-3.6649-4.8909-0.9186-1.5834-0.3871-3.4392-2.135-4.4919s-5.7763-1.3015-9.861-3.7973c-4.0847-2.4958-8.2253-7.2394-11.646-9.4542s-6.1223-1.8995-10.438-3.9019c-4.3156-2.0024-10.245-6.3232-11.101-10.56-0.8553-4.2364 3.3648-8.3871 4.0438-11.333 0.6791-2.9462-2.1841-4.6881-2.8527-7.2294-0.6686-2.5413 0.8589-5.8814 0.031-7.9397s-4.0124-2.8342-5.8203-4.4575-2.2381-4.0947-3.6689-5.6286c-1.4309-1.5339-3.8633-2.1293-5.4806-3.7551-1.6174-1.6258-2.4186-4.2829-3.908-6.2769-1.4893-1.994-3.6674-3.3243-5.0687-5.1901-1.4012-1.8658-2.0245-4.2673-4.0432-7.0672s-5.4333-5.9976-8.883-6.8481c-3.4496-0.85048-6.9335 0.6474-10.002 0.6107s-5.7204-1.6089-7.5892-3.5791c-1.8688-1.9702-2.9533-4.3387-6.7483-8.2622-3.795-3.9235-10.301-9.4011-15.866-11.01s-10.19 0.65116-14.719 0.83026c-4.5293 0.17909-8.964-1.724-13.958-2.3723-4.9939-0.64835-10.546-0.0413-16.1 0.56576"/>
		<path id="river_Kallenbach" d="m1249.4 908.99c-2.3284-0.73026-4.5806-1.4366-6.6216-2.8683s-3.9381-3.8171-6.297-4.3731c-2.359-0.55596-7.4725 0.2326-9.655-3.136-2.1826-3.3686-2.2822-10.764-1.1711-14.397 1.1111-3.633 3.4315-3.502 4.0625-5.9587 0.6311-2.4567-0.4265-7.5016 3.4255-11.765s12.613-7.7432 16.54-10.983c3.9269-3.2396 3.0197-6.2401 4.4535-9.0322s5.2082-5.3739 7.254-8.7283 2.3619-7.4796 3.1061-10.789 1.9162-5.801 1.4465-9.1918c-0.4698-3.3908-2.5826-7.6838-3.9894-12.15-1.4068-4.4661-2.1074-9.1056 0.057-13.426 2.1648-4.3206 7.1947-8.3204 8.8823-14.734s0.032-15.242-2.1127-20.935c-2.1452-5.6928-4.781-8.25-6.3166-11.299-1.5356-3.049-1.9701-6.5897-2.8629-9.7247-0.8929-3.135-2.2445-5.8642-4.2401-8.4014-1.9957-2.5372-4.6356-4.8819-7.249-7.6655-2.6134-2.7836-5.1999-6.0062-5.9329-8.4419-0.7329-2.4357 0.3886-4.0835-1.6213-6.1028-2.0099-2.0193-7.1524-4.4102-8.8959-6.6173-1.7435-2.2071-0.086-4.2298-3.554-7.7824-3.4674-3.5526-12.06-8.6353-16.283-13.451-4.2232-4.8153-4.0751-9.363-1.396-15.237 2.6791-5.8735 7.8891-13.072 13.099-20.27"/>
		<path id="river_Kerkerbach" d="m870.42 1001.2c5.3841-6.4798 10.768-12.96 14.237-14.562 3.4683-1.6027 5.0198 1.6706 9.1532 4.3145 4.1334 2.6439 10.847 4.659 15.935 4.1929 5.0881-0.46607 8.5508-3.4128 12.094-2.6728 3.5429 0.73994 7.1648 5.1653 8.7223 5.1665 1.5576 1e-3 1.0514-4.4217 2.1626-7.9745 1.1112-3.5528 3.8398-6.234 7.2116-6.5324 3.3718-0.29838 7.3854 1.7855 10.821 0.12629s6.2948-7.0609 9.8384-9.5492 7.7702-2.0626 10.498-0.77918 3.9568 3.4234 5.3272 3.499c1.3704 0.0756 2.8828-1.9121 4.6057-1.8174 1.7229 0.0947 3.6552 2.2709 6.6038 1.8839 2.9486-0.38691 6.9139-3.3357 8.5122-6.408 1.5983-3.0723 0.82928-6.269 2.6164-7.3406 1.7871-1.0716 6.1291-0.0171 9.4937-2.2312 3.3646-2.2141 5.7526-7.6966 7.3044-12.318s2.267-8.3825 3.555-12.703c1.2879-4.3207 3.1484-9.2005 5.4457-13.949 2.2973-4.7484 5.0311-9.3645 5.2749-13.942s-2.0033-9.1163-1.7564-13.474c0.247-4.3576 2.9887-8.5325 2.9524-13.174-0.036-4.6419-2.8515-9.7513-2.0522-17.391s5.2137-17.808 5.1698-22.899c-0.044-5.0914-4.5473-5.1048-6.924-7.5794-2.3768-2.4745-2.6257-7.4108-4.3471-11.262-1.7215-3.8513-4.9164-6.6169-4.4033-9.844 0.5132-3.2271 4.7352-6.9142 7.3817-12.398 2.6464-5.4838 3.7171-12.765 4.0097-18.212 0.2927-5.4479-0.1931-9.0624-1.7284-11.584-1.5353-2.5218-4.1211-3.95-6.1661-7.4377-2.0451-3.4877-3.5484-9.0349-3.7206-13.598-0.1723-4.5635 0.987-8.1422 2.1466-11.722"/>
		<path id="river_Dill" d="m1577.1 1061.3c4.153-3.1379 8.3057-6.2756 14.355-15.06 6.0497-8.784 13.996-23.214 18.577-31.54s5.7951-10.547 5.3868-12.28c-0.4083-1.7336-2.4406-2.9799-6.3625-5.3252-3.9218-2.3453-9.7327-5.7892-13.953-11.642-4.2199-5.8524-6.8474-14.113-6.5315-21.413 0.3159-7.3 3.5756-13.638 1.9077-17.242s-8.2645-4.4747-11.875-8.2282c-3.6109-3.7535-4.2345-10.391-6.2912-13.873-2.0566-3.4823-5.547-3.8083-7.8137-5.9618-2.2666-2.1536-3.3085-6.1355-6.3584-8.4686-3.0499-2.3331-8.1081-3.0161-13.352-5.7407-5.2439-2.7246-10.673-7.4914-16.065-12.261-5.3923-4.7699-10.748-9.5423-13.671-15.508s-3.4117-13.122-6.9841-18.109c-3.5725-4.9863-10.229-7.8005-10.688-10.505-0.4581-2.704 5.2832-5.2968 5.3412-8.3956 0.058-3.0988-5.5678-6.7041-4.2889-11.257 1.279-4.5527 9.4637-10.051 11.081-15.329s-3.3332-10.335-6.7657-16.216c-3.4326-5.881-5.3458-12.585-8.4671-18.654-3.1212-6.069-7.4505-11.502-6.8425-18.592s6.1544-15.835 6.073-24.798c-0.081-8.9627-5.7915-18.143-2.9451-20.848 2.8463-2.705 14.248 1.0662 20.471 0.39002 6.2228-0.67621 7.2669-5.8003 8.803-12.915 1.5361-7.1142 3.564-16.218 7.6119-22.646 4.048-6.4284 10.115-10.18 12.111-13.411 1.9963-3.2312-0.079-5.9434-2.6817-8.4781-2.6026-2.5346-5.7323-4.8913-4.8873-8.8407 0.8451-3.9494 5.6659-9.4905 6.4742-12.797s-2.3971-4.3789-2.1485-7.1759 3.9525-7.318 6.366-13.842c2.4136-6.5243 3.5366-15.052 8.7659-21.616 5.2294-6.5644 14.564-11.164 20.434-15.173 5.8703-4.0088 8.2763-7.4269 9.5298-12.148s1.3544-10.746 4.9298-13.354c3.5755-2.6076 10.624-1.7971 14.341-4.0599 3.7168-2.2628 4.1027-7.5996 4.5245-12.88 0.4218-5.2808 0.8794-10.505 0.047-16.732-0.8326-6.2273-2.9559-13.457 0.1408-20.114 3.0968-6.6571 11.413-12.739 14.622-19.128 3.2088-6.3883 1.3093-13.083-1.1412-17.566-2.4504-4.4827-5.4522-6.7525-6.8162-9.6332-1.364-2.8807-1.0887-6.3718-6.2036-11.259-5.115-4.8869-15.621-11.169-19.408-16.011-3.787-4.8421-0.8535-8.2434-4.0341-10.601-3.1807-2.3575-12.476-3.6711-20.775-3.9534-8.2984-0.28225-15.598 0.46709-18.548-2.3382-2.9504-2.8053-1.5503-9.1629-1.5394-14.385 0.011-5.2217-1.3679-9.2993-1.625-13.839-0.2571-4.5393 0.6087-9.5366-0.1133-13.606-0.7219-4.0695-3.0329-7.2114-0.5514-13.716s9.7582-16.376 16.382-21.246c6.6242-4.8708 12.595-4.7426 15.325-9.4536 2.7296-4.711 2.2181-14.262 4.7345-21.623s8.0605-12.533 13.316-17.066c5.255-4.5328 10.22-8.427 13.98-14.124 3.7596-5.6971 6.3134-13.197 8.8675-20.698"/>
		<path id="river_Gelbach" d="m345.89 879.55c-1.4021-2.3846-2.8048-4.7704-3.2386-7.9014-0.43379-3.131 0.10221-7.0065 1.9921-9.8597s5.1329-4.6829 8.2954-4.545c3.1625 0.13792 6.2434 2.2424 8.4748 5.3926 2.2314 3.1502 3.6139 7.3454 5.3288 9.859s3.7614 3.3459 5.5812 3.2286c1.8197-0.11731 3.4136-1.1836 4.4464-2.7886s1.5049-3.7495 2.679-5.4871c1.1741-1.7375 3.0496-3.0671 3.6273-5.7793 0.5777-2.7122-0.14251-6.8079 2.0672-9.1825 2.2098-2.3746 7.3486-3.0266 9.7902-5.874 2.4416-2.8474 2.1865-7.8911 4.3022-8.6376 2.1156-0.74646 6.6006 2.8046 9.78 2.0659 3.1793-0.73864 5.054-5.7666 7.6544-5.9715 2.6004-0.20496 5.9254 4.4125 7.8291 3.4785s2.387-7.419 4.9733-8.6468c2.5864-1.2278 7.2744 2.8019 10.205-0.69425 2.9302-3.4961 4.1033-14.518 7.2059-17.145s8.1332 3.1398 12.178 3.69 7.1033-4.1155 9.9258-8.2309c2.8225-4.1154 5.4084-7.6799 9.2929-9.9856 3.8844-2.3057 9.0666-3.3522 12.333-5.7015 3.2666-2.3493 4.6186-6.0019 8.0783-7.8578s9.0258-1.9144 13.767-3.5683c4.7415-1.6539 8.6591-4.9028 9.4756-8.6517 0.81648-3.7488-1.4688-7.9982 1.0155-11.908 2.4843-3.9102 9.738-7.4792 10.474-13.044s-5.0468-13.127-6.1375-20.145c-1.0908-7.0183 2.5116-13.492 5.4924-18.54 2.9808-5.0485 5.3399-8.6718 10.651-11.237s13.571-4.0724 15.34-6.9712-2.9549-7.1903-1.3935-9.7547 9.4079-3.4005 12.116-8.3576 0.27904-14.036-2.4847-16.127c-2.7637-2.0914-5.861 2.8059-9.0842 4.2801-3.2232 1.4742-6.5734-0.47522-9.4397 1.1007-2.8663 1.5759-5.2468 6.6772-7.213 7.5298-1.9661 0.85259-3.5183-2.5444-3.3313-8.1472 0.18695-5.6028 2.1137-13.41 1.0978-20.81-1.016-7.3993-4.9754-14.39-5.3875-20.256s2.7239-10.604 5.7181-13.91c2.9942-3.3058 5.846-5.1779 3.015-7.5928-2.8309-2.4148-11.345-5.3727-14.628-12.539s-1.3336-18.54 0.96209-26.25c2.2957-7.7096 4.9372-11.753 8.1515-12.047s6.9998 3.1607 10.782 4.58c3.7821 1.4194 7.5608 0.80426 11.333-1.1096s7.5386-5.1263 11.401-5.6192 7.8181 1.7331 11.18 4.2702c3.3622 2.5371 6.1304 5.3847 8.7292 4.3326 2.5988-1.0521 5.0292-6.0033 6.9257-11.727 1.8965-5.7234 3.2589-12.219 2.7168-18.932-0.5421-6.7128-2.9892-13.643-0.66602-21.316 2.3231-7.6731 9.4167-16.087 15.125-18.563 5.708-2.4763 10.028 0.98474 14.052-1.0026 4.0235-1.9873 7.7507-9.4222 11.646-12.991 3.8954-3.569 7.9573-3.2713 10.758-4.3203 2.8012-1.049 4.3424-3.4448 10.49-3.4947 6.1479-0.0499 16.901 2.2463 27.652 4.5422"/>
		<path id="river_Eisenbach" d="m558.84 688.94c11.62-3.9524 23.24-7.9044 34.05-7.4042 10.81 0.50026 20.809 5.4519 28.913 7.7927 8.104 2.3408 14.312 2.0711 18.918-0.0678 4.6054-2.139 7.6084-6.1471 11.642-7.3974 4.0337-1.2503 9.0962 0.25725 13.553 2.5354 4.4563 2.2782 8.3059 5.3263 11.343 5.9032 3.0373 0.57695 5.2628-1.3164 6.3017-5.0367s0.89109-9.2683 4.7027-13.231c3.8116-3.9625 11.582-6.3378 17.388-9.4421s9.6496-6.9375 11.142-12.668 0.63374-13.36 3.2569-17.818c2.6232-4.4577 8.7273-5.7422 12.865-7.9141s6.3105-5.2315 8.4692-9.4791c2.1587-4.2475 4.3036-9.683 5.3878-13.526 1.0841-3.8429 1.1073-6.0935-1.3907-9.0402-2.498-2.9467-7.518-6.5891-10.945-9.3025s-5.2604-4.4979-4.5556-12.656c0.70479-8.1579 3.9489-22.688 7.9898-32.082s8.8777-13.65 13.715-17.906"/>
		<path id="river_Elbbach" d="m752.62 919.26c0.9705-1.8108 1.9412-3.622 4.5066-4.5631 2.5655-0.94113 6.7237-1.0118 8.4073-3.8008 1.6836-2.7891 0.89231-8.2951 1.688-13.046s3.1786-8.7427 2.8263-12.35c-0.3524-3.6076-3.4419-6.8333-1.8815-10.751 1.5604-3.9172 7.7708-8.5248 9.8082-12.931 2.0375-4.4066-0.0986-8.6132 3.6165-12.6 3.715-3.9868 13.281-7.7522 18.876-12.087 5.5948-4.3347 7.2187-9.239 10.16-10.479 2.9411-1.2398 7.1976 1.185 9.9302 0.85043s3.9426-3.4284 5.1493-6.5076c1.2067-3.0792 2.41-6.1435 5.5806-9.5561 3.1706-3.4126 8.3077-7.1725 10.053-12.164 1.7452-4.9915 0.0983-11.215 2.4322-12.557 2.3339-1.3415 8.6476 2.2001 10.267-0.47511s-1.4552-11.567 0.55216-15.321c2.0073-3.7536 9.0954-2.3671 11.424-5.7392 2.3283-3.372-0.10274-11.503 0.61819-16.81 0.72094-5.307 4.5938-7.7881 7.417-5.4164 2.8231 2.3717 4.5958 9.5932 7.0911 12.731s5.7104 2.1919 6.7729-1.1351c1.0624-3.327-0.0289-9.0347 1.8767-11.513 1.9055-2.4781 6.8081-1.7262 8.7936-3.8275 1.9855-2.1013 1.0554-7.0564 2.939-8.9584 1.8836-1.902 6.5797-0.74976 8.4277-3.3393 1.848-2.5896 0.84861-8.9215 3.3916-11.53 2.543-2.6082 8.6269-1.4916 12.285-5.3588 3.6583-3.8673 4.8918-12.719 8.3409-16.537s9.1121-2.6041 11.756-6.8477c2.6441-4.2436 2.27-13.946 3.9169-19.855 1.6469-5.9093 5.3143-8.0237 7.0179-11.303s1.4432-7.7231 3.7713-11.671c2.3281-3.948 7.2443-7.3981 7.4685-10.968 0.22415-3.57-4.2447-7.2605-5.5413-10.908-1.2967-3.6475 0.58025-7.2512 0.71882-10.957s-1.4619-7.5133-1.8714-10.61c-0.40943-3.0969 0.37298-5.4819 0.0416-9.4228-0.33142-3.9408-1.7771-9.4376-4.4148-13.45-2.6376-4.0128-6.4678-6.5408-9.8932-7.1051s-6.4445 0.83571-10.097 0.0702c-3.6522-0.76554-7.9343-3.6965-12.713-5.6796-4.7783-1.9831-10.049-3.0159-13.918-5.3959-3.8687-2.38-6.3363-6.1096-10.827-8.1338-4.4906-2.0242-11.005-2.3427-16.246-1.8838-5.2412 0.45893-9.2086 1.6954-12.859 2.0381-3.65 0.34264-6.9826-0.209-10.212 0.065-3.2294 0.27401-6.3537 1.3736-9.1903 0.80231s-5.3814-2.8135-9.3297-3.6174c-3.9483-0.80385-9.2975-0.16697-15.614 0.63365s-13.602 1.7652-15.089-0.6899c-1.4865-2.4552 2.8264-8.33 3.6846-14.065 0.85815-5.7348-1.7393-11.33-4.2681-16.506-2.5288-5.1765-4.9888-9.934-4.6206-13.416 0.36814-3.482 3.5647-5.687 6.6507-6.5966 3.086-0.90956 6.0604-0.52389 7.1803-4.0375 1.12-3.5136 0.38641-10.927 3.1703-15.566 2.7839-4.6389 9.0843-6.5015 10.57-9.6766s-1.8433-7.6639-2.0741-10.311 2.6368-3.4515 3.4931-6.2398c0.85629-2.7883-0.29849-7.5616 0.58769-9.9454s3.8125-2.3766 4.5321-4.5354-0.76701-6.4844 0.32773-10.582c1.0947-4.098 4.7711-7.9667 10.452-10.071 5.6805-2.1046 13.363-2.4448 17.743-1.6334s5.4546 2.7732 7.5494 2.7986c2.0947 0.0255 5.209-1.884 8.7637-1.5707s7.5484 2.8484 11.186 2.9958c3.6379 0.14743 6.9207-2.0919 10.193-3.0857 3.2724-0.99383 6.5334-0.74236 9.9139-2.8721s6.8814-6.6407 10.382-11.152"/>
		<path id="river_Lasterbach" d="m917.5 713.58c2.2411 2.0777 4.4812 4.1544 7.9096 5.2796 3.4284 1.1252 8.0449 1.2997 11.917 0.59665 3.8723-0.70301 7.0005-2.2832 10.404-2.1647 3.4039 0.11853 7.0823 1.935 12.364 6.1148 5.2818 4.1798 12.167 10.722 18.634 12.876s12.516-0.0812 19.512-6.7984c6.9958-6.7172 14.938-17.917 24.67-23.695 9.7324-5.778 21.253-6.1336 27.835-9.7594 6.582-3.6259 8.2258-10.522 13.486-20.933s14.135-24.334 18.692-33.205 4.7957-12.688 6.7206-13.958c1.9248-1.2695 5.5347 9e-3 12.42-1.5593 6.8853-1.5687 17.046-5.9841 23.826-5.7511 6.78 0.23295 10.178 5.113 12.47 5.0078 2.2917-0.10513 3.4777-5.195 9.2084-7.6866 5.7307-2.4916 16.004-2.3841 23.518-3.0075 7.5139-0.62335 12.268-1.9774 15.906-4.6162s6.1603-6.5628 7.4699-14.656 1.4058-20.357 0.286-28.192-3.4563-11.243-6.0139-13.335c-2.5575-2.0923-5.3363-2.8688-8.1163-3.6457"/>
		<path id="river_Rehbach" d="m1538.3 658.56c-1.5533-0.07-3.1075-0.1401-4.8685-0.44501s-3.7287-0.8449-6.8756-3.1739c-3.1469-2.329-7.4724-6.4473-11.917-12.308-4.4449-5.8603-9.0085-13.462-11.795-18.445-2.7865-4.983-3.7957-7.3468-9.8761-10.734-6.0805-3.3869-17.232-7.7956-25.276-8.4764s-12.978 2.3669-17.699 2.204-9.2257-3.5375-14.862-3.473c-5.6364 0.0644-12.402 3.569-18.164 4.7927-5.7617 1.2238-10.519 0.16606-15.002 1.232s-8.6867 4.2558-16.247 2.6936c-7.56-1.5622-18.476-7.8772-26.067-11.125-7.5918-3.2473-11.859-3.4259-14.801-5.7363-2.9423-2.3104-4.5589-6.7534-8.5925-10.048-4.0335-3.2948-10.484-5.4402-15.929-5.11-5.4444 0.33018-9.8809 3.1364-14.658 2.2802s-9.896-5.3757-14.658-5.506c-4.7616-0.13026-9.1645 4.1297-13.564 3.2815-4.3991-0.84822-8.7946-6.8056-13.107-10.311-4.3125-3.5058-8.542-4.5588-11.937-6.441-3.3952-1.8821-5.9556-4.5938-11.086-5.2976-5.13-0.70372-12.829 0.6017-17.3-1.56-4.4709-2.1617-5.7128-7.7916-6.9269-13.426s-2.4004-11.274 1.8297-18.505c4.2301-7.2305 13.876-16.05 16.866-22.809 2.9896-6.7591-0.6785-11.458-1.2904-15.443s1.8334-7.2537 1.6959-9.6379c-0.1374-2.3842-2.8589-3.8836-5.5818-5.3838"/>
		<path id="river_Amdorfbach" d="m1577.8 571.93c-0.6964-0.91188-1.3935-1.8248-2.7547-2.7938-1.3612-0.96905-3.3865-1.9935-4.7489-5.8062-1.3624-3.8127-2.0605-10.414-4.3094-16.552-2.2489-6.1389-6.0488-11.815-14.767-14.587s-22.354-2.6389-29.307-0.59893c-6.9528 2.04-7.2207 5.985-10.227 8.5839s-8.7508 3.8516-14.239 4.8721c-5.4883 1.0205-10.72 1.8087-14.798 0.43364-4.0774-1.3751-7.0016-4.9153-11.322-4.539-4.3202 0.37623-10.036 4.6696-14.153 5.4943s-6.6384-1.8204-9.8818-2.1891c-3.2435-0.36869-7.2087 1.5403-12.389 2.2611-5.1807 0.72076-11.577 0.25287-15.19-2.2669-3.6132-2.5198-4.4423-7.0922-8.7536-11.018-4.3113-3.9258-12.106-7.204-17.335-7.8446-5.2293-0.64056-7.892 1.3572-10.467 1.0004-2.5748-0.35688-5.0623-3.0695-7.6053-2.5241s-5.1401 4.3496-9.392 4.462c-4.2518 0.11245-10.159-3.4673-14.126-3.7142-3.9673-0.24691-5.9925 2.8395-10.897 0.86417s-12.688-9.0132-17.762-12.597c-5.0731-3.5839-7.4348-3.7128-10.342-5.4032s-6.3583-4.9429-8.9502-5.9999c-2.5919-1.0571-4.3231 0.0824-6.1908-1.4338-1.8678-1.5162-3.8721-5.6892-6.0686-8.3034-2.1965-2.6142-4.5858-3.6688-6.9762-4.7239"/>
		<path id="river_Aar2_" d="m1580.7 569.05c5.6243 4.2769 11.247 8.5528 14.009 12.063 2.7613 3.5098 2.6619 6.253 8.1936 11.2 5.5318 4.9472 16.693 12.098 22.296 17.536 5.6035 5.4385 5.6501 9.164 4.5571 11.977-1.0931 2.8131-3.3257 4.7146-2.3636 7.387 0.9621 2.6724 5.1177 6.1143 8.1125 10.082 2.9948 3.9672 4.829 8.4589 8.534 12.279s9.2797 6.9696 14.61 8.8097c5.3306 1.84 10.417 2.3714 14.19 3.3161 3.7731 0.94475 6.2326 2.3023 11.401 3.6097 5.168 1.3074 13.044 2.5651 19.852 8.5421 6.8081 5.977 12.548 16.671 21.504 21.073 8.9562 4.402 21.128 2.5123 28.925 3.903 7.7974 1.3907 11.22 6.0604 13.128 9.411 1.9086 3.3507 2.3038 5.382 6.1007 8.812 3.797 3.43 10.994 8.2585 15.641 16.344 4.6469 8.0855 6.7439 19.427 5.6044 27.311-1.1394 7.8844-5.5154 12.313-5.1897 17.503 0.3256 5.1905 5.3517 11.143 9.1772 17.446 3.8254 6.3028 6.4491 12.952 11.053 16.782 4.6034 3.8302 11.182 4.8389 12.229 9.9452s-3.4377 14.309-3.9682 18.748c-0.5305 4.4392 2.8922 4.1144 1.9167 6.6465-0.9755 2.5321-6.3484 7.9207-7.3764 13.258-1.0281 5.3378 2.288 10.623 2.9561 16.026 0.668 5.4031-1.3112 10.924-3.2903 16.444"/>
		<path id="river_Dietzhoehle" d="m1609.8 444.74c3.8041-4.9548 7.6083-9.9098 11.726-12.829 4.1179-2.9194 8.5484-3.8028 12.601-5.8655 4.0524-2.0627 7.7271-5.3046 12.475-7.8905 4.748-2.5859 10.568-4.5153 16.974-4.382 6.4058 0.13332 13.396 2.3288 19.124 1.4959 5.7287-0.83289 10.197-4.6936 13.6-4.9364s5.7409 3.1314 13.087 1.5056c7.3459-1.6258 19.7-8.2499 27.032-9.5507s9.6418 2.7207 13.309 3.2452c3.6669 0.52449 8.6918-2.4465 13.666-4.8057 4.9746-2.3592 9.8972-4.1062 12.142-5.8538s1.8107-3.4964 4.4077-4.6097 8.2241-1.5894 13.937-6.3267c5.7131-4.7373 11.512-13.735 17.421-24.132 5.909-10.397 11.927-22.193 17.398-29.405s10.392-9.8393 10.036-12.657c-0.3562-2.8181-5.9909-5.8275-10.284-5.749-4.2932 0.0785-7.2433 3.2455-11.295-2.2708-4.0514-5.5163-9.2041-19.716-12.922-27.009-3.7178-7.2923-6.0007-7.6748-8.2072-11.007-2.2065-3.3318-4.3355-9.6135-4.9844-15.049s0.1828-10.024-2.0373-14.755c-2.22-4.7318-7.4928-9.6069-8.049-13.949-0.5563-4.3421 3.6051-8.1494 13.425-9.4387 9.8202-1.2893 25.297-0.0604 33.914-1.0847 8.6173-1.0243 10.375-4.3019 10.356-8.0311s-1.8156-7.9102-1.3169-10.473 3.2926-3.5071 1.1122-6.6728c-2.1804-3.1657-9.3353-8.5538-15.545-12.523s-11.474-6.5183-15.9-7.3221c-4.4264-0.80382-8.0142 0.13866-11.603 1.0814"/>
	</g>
	<g id="river_sections" fill="none" stroke="#00a9ff" stroke-linecap="round" stroke-linejoin="round" stroke-width="10">
		<path id="river_Lahn" d="m1824.5 100.61c20.355 2.6885 40.709 5.3768 54.658 4.2364 13.949-1.1405 21.494-6.1093 27.191-11.906 5.6978-5.7972 9.5488-12.423 14.36-17.412 4.8112-4.9892 10.582-8.341 17.305-11.045 6.7236-2.7036 14.399-4.7587 20.978-4.9614s12.06 1.4462 15.113 3.8891c3.0527 2.4429 3.6771 5.6786 6.4711 10.524 2.7939 4.8451 7.7565 11.3 13.823 14.128 6.0664 2.8283 13.236 2.0315 16.428 3.5469 3.1922 1.5153 2.4078 5.3418 4.7313 7.2444 2.3236 1.9026 7.7537 1.8822 10.987 0.39481 3.2329-1.4874 4.2696-4.4423 6.5741-6.6783 2.3044-2.2359 5.8757-3.7519 9.0905-4.3314 3.2148-0.5795 6.0722-0.22288 7.7314 1.2821s2.1212 4.1573 3.4197 6.127c1.2985 1.9697 3.4323 3.2573 5.882 6.3735 2.4496 3.1162 5.2153 8.06 8.2682 10.231 3.053 2.1708 6.3923 1.5695 8.3087 3.1862 1.9165 1.6167 2.4105 5.45 2.4151 9.5637 0 4.1137-0.4802 8.5079-1.813 11.791s-3.5139 5.4574-4.7821 7.7778c-1.2683 2.3204-1.6236 4.7865-0.8595 10.339 0.7641 5.5526 2.6471 14.191 3.4593 23.15 0.8121 8.9586 0.5537 18.237 1.6523 23.527 1.0985 5.2903 3.5528 6.593 7.2952 7.5564 3.7424 0.96347 8.773 1.5883 13.845 2.7958 5.0718 1.2076 10.185 2.9976 15.622 5.2957 5.4368 2.298 11.198 5.104 13.844 7.5723 2.6461 2.4683 2.1786 4.5987 1.0475 8.2569-1.131 3.6581-2.9255 8.8439-3.6361 12.852-0.7106 4.0077-0.3376 6.8364 0.2599 9.5143 0.5976 2.6778 1.4195 5.2046 3.6745 7.7791s5.942 5.1973 9.4061 7.2378c3.4641 2.0405 6.7048 3.4989 10.609 4.8138 3.9041 1.3148 8.4713 2.4862 13.986 2.5832 5.5147 0.097 11.977-0.87984 16.788-1.0324 4.8109-0.15258 7.9694 0.51872 10.339 2.2065s3.9498 4.3909 6.2225 7.5527c2.2728 3.1618 5.2375 6.7821 7.8164 10.059 2.5788 3.2772 4.7717 6.2109 5.6869 10.034 0.9153 3.8227 0.5538 8.5342-1.0924 13.668-1.6461 5.1342-4.5767 10.691-6.1885 15.275-1.6117 4.5831-1.9046 8.1912 0.019 10.582 1.9239 2.391 6.0631 3.5655 8.7746 5.3574 2.7116 1.7919 3.9958 4.2002 4.3908 6.9535 0.3951 2.7533-0.098 5.8518 1.4825 8.0803 1.5807 2.2286 5.2341 3.5876 5.0786 6.4481s-4.1183 7.2226-6.4762 10.698c-2.3579 3.4755-3.1103 6.0632-1.9627 8.1115s4.1938 3.5571 5.8235 6.1527c1.6297 2.5956 1.8441 6.2774 1.2822 9.6152s-1.8999 6.3322-4.1949 8.9512-5.5474 4.863-8.2193 6.4974c-2.6718 1.6344-4.763 2.659-7.598 5.2259-2.835 2.5669-6.413 6.6755-7.2329 12.403-0.82 5.7274 1.1177 13.073 0 19.999-1.1129 6.9265-5.2757 13.435-7.9068 19.829-2.6311 6.3938-3.7304 12.672-4.1938 17.169-0.4635 4.4978-0.2912 7.2152 1.0817 9.8194s3.9453 5.0953 6.5641 6.6958c2.6189 1.6005 5.2837 2.3108 8.7286 2.3091 3.4449-2e-3 7.67-0.71508 12.965 0.0856 5.2946 0.80071 11.658 3.1148 16.358 3.6543s7.7358-0.69472 10.651-1.7292c2.9156-1.0345 5.71-1.869 9.5648-1.0756 3.8547 0.79343 8.7687 3.214 9.5973 9.8354s-2.4267 17.443-0.7237 20.839c1.703 3.3959 8.3638-0.63371 11.51 0.39188 3.1465 1.0256 2.7791 7.1052 3.0223 11.47s1.0965 7.015 3.8801 11.826c2.7836 4.8109 7.4968 11.782 9.8479 16.471s2.3407 7.0941 1.7554 10.56c-0.5854 3.4654-1.7456 7.991 0.386 10.057s7.5535 1.6724 10.796 7.824c3.243 6.1516 4.3073 18.846 7.1473 26.085 2.8399 7.2391 7.4537 9.0227 12.626 10.356 5.172 1.3335 10.902 2.2172 15.971 3.541 5.0694 1.3238 9.4783 3.0875 13.389 5.2739s7.3241 4.7951 10.719 3.5648c3.3954-1.2304 6.774-6.299 11.626-7.8579 4.8517-1.5589 11.174 0.39193 16.704 2.8756 5.5296 2.4837 10.266 5.4998 15.728 9.1771 5.4619 3.6774 11.649 8.0159 18.586 10.425 6.9364 2.4087 14.621 2.8881 20.256 5.8314 5.6352 2.9432 9.22 8.3483 13.397 10.973 4.1766 2.6242 8.944 2.4682 12.241 4.1043 3.2975 1.6361 5.125 5.0627 8.236 8.2891 3.1109 3.2264 7.5044 6.2526 10.798 8.618 3.2934 2.3654 5.4866 4.0697 6.8781 6.7073 1.3914 2.6376 1.9819 6.2078-0.4383 10.5s-7.8509 9.3075-10.676 13.422c-2.8253 4.1145-3.0448 7.3268-3.6579 9.5927s-1.6198 3.5859-5.2684 5.656c-3.6486 2.0701-9.9396 4.8908-14.484 5.9009s-7.3413 0.20931-10.18-0.85248c-2.8387-1.0618-5.7186-2.3847-8.1119-4.1544-2.3932-1.7698-4.2993-3.9866-4.0028-8.8227 0.2964-4.8361 2.7965-12.29 2.7692-17.562-0.027-5.2719-2.5831-8.3616-6.0308-9.1812-3.4477-0.81956-7.7865 0.63244-11.262 2.5649s-6.0867 4.345-7.8189 6.4561c-1.7323 2.1111-2.5853 3.9202-2.8651 7.7362-0.2798 3.816 0.014 9.6379-1.5609 13.176-1.5745 3.538-5.017 4.7931-6.9145 8.0651-1.8974 3.272-2.2491 8.5593-4.7771 12.61-2.5279 4.0503-7.2324 6.8645-9.8307 9.1166s-3.0898 3.9412-2.2074 8.12c0.8823 4.1788 3.1378 10.847 3.8335 16.709 0.6958 5.8621-0.1676 10.918-0.9503 14.457-0.7826 3.5384-1.4843 5.5589-3.5736 5.4266s-5.5673-2.4176-9.4995-0.60627c-3.9321 1.8113-8.3152 7.7183-12.658 9.8289-4.3431 2.1107-8.6422 0.42271-13.098 1.0706s-9.0634 3.633-13.586 3.5994c-4.5232-0.0336-8.964-3.0872-13.028-2.1497-4.0645 0.93744-7.7512 5.866-12.405 9.8655s-10.276 7.07-11.89 12.832c-1.6141 5.7625 0.7792 14.215-1.2078 18.239s-8.3551 3.6208-12.534 6.8641-6.1658 10.132-11.103 12.482c-4.9368 2.3501-12.824 0.16184-18.519 2.1867s-9.1938 8.2626-12.506 11.833c-3.3125 3.57-6.4385 4.4725-10.364 5.5562-3.9252 1.0837-8.6495 2.3485-12.496 4.168s-6.8131 4.1935-9.461 6.8488c-2.6479 2.6553-4.9759 5.5912-8.4406 6.2896-3.4647 0.69843-8.0671-0.84103-10.437 3.3078-2.3701 4.1488-2.5063 13.985-4.8112 14.326s-6.7787-8.8134-10.769-12.585c-3.9902-3.7715-7.4946-2.1573-10.993-0.30507-3.4984 1.8522-6.9893 3.942-11.081 5.2215-4.0919 1.2795-8.7861 1.7488-12.771 7.5297-3.9852 5.7808-7.2601 16.872-12.361 25.179s-12.026 13.828-15.396 18.073c-3.3694 4.245-3.1819 7.2112-5.5595 8.9304-2.3776 1.7193-7.3211 2.1926-11.323 3.4886-4.0017 1.2959-7.0606 3.4143-10.294 3.5907-3.2333 0.1764-6.642-1.5902-9.5567-3.4759-2.9148-1.8856-5.3353-3.8904-5.6409-1.8898-0.3057 2.0006 1.5045 8.0063 0.4733 13.168-1.0312 5.1616-4.9033 9.48-7.8815 16.452s-5.0621 16.597-9.6635 23.125c-4.6014 6.5281-11.72 9.9596-17.672 11.453s-10.736 1.0492-14.316-0.6174c-3.5804-1.6667-5.9563-4.5561-7.1611-8.7248-1.2049-4.1686-1.2375-9.6156-2.6262-11.269-1.3886-1.6535-4.1333 0.4883-8.3354 4.3179-4.202 3.8297-9.8612 9.3471-11.33 13.778-1.4689 4.431 1.2514 7.7744 3.0748 10.906 1.8234 3.1316 2.7501 6.0508 0.2384 6.1062-2.5118 0.055-8.4626-2.7524-11.938-2.2357-3.475 0.5167-4.4723 4.3576-5.3986 8.7503-0.9263 4.3928-1.7814 9.3363-5.1337 12.982-3.3523 3.6456-9.2015 5.9934-14.937 9.3199-5.7352 3.3265-11.355 7.6312-17.504 10.298-6.1493 2.6669-12.829 3.6962-18.98 1.7619-6.1513-1.9344-11.774-6.8334-13.222-5.6349-1.4483 1.1985 1.2786 8.494-0.2804 13.769-1.5591 5.2748-7.4038 8.5296-12.591 13.171-5.1874 4.6416-9.7166 10.669-16.66 14.37-6.9429 3.7007-16.3 5.0746-24.945 7.8742s-16.576 7.0245-21.981 7.5419-8.2831-2.6742-13.513-3.4712c-5.2301-0.7971-12.811 0.8017-16.118-1.0794-3.3067-1.8811-2.3378-7.2434-4.5164-8.7363-2.1786-1.493-7.5053 0.8844-10.725-1.0922-3.2199-1.9766-4.3326-8.3084-6.5485-12.826-2.2158-4.518-5.5353-7.2213-9.3778-8.8718-3.8426-1.6504-8.2077-2.2469-11.598-2.3152-3.3906-0.068-5.8057 0.3916-10.535-2.2121-4.7294-2.6036-11.773-8.2718-12.004-12.371-0.231-4.0995 6.3493-6.6282 7.8976-9.1601 1.5482-2.5319-1.9371-5.0644-5.0197-6.1662-3.0825-1.1018-5.7583-0.7698-8.8037-2.1055-3.0453-1.3356-6.463-4.3414-9.0654-8.233s-4.3899-8.67-11.006-12.952c-6.6159-4.2818-18.06-8.0656-23.42-13.889-5.3601-5.8236-4.6337-13.687-6.0065-18.033-1.3727-4.3462-4.8458-5.1742-7.2695-7.5431s-3.7971-6.2797-6.1699-5.7052c-2.3728 0.5744-5.7442 5.6353-8.3233 5.8727-2.579 0.2374-4.3655-4.3485-7.1533-6.3539-2.7877-2.0055-6.5732-1.4271-10.678-2.0769-4.1049-0.6498-8.5261-2.5284-8.5157-1.2232 0.01 1.3052 4.4535 5.7951 3.7942 8.5135-0.6593 2.7185-6.4199 3.6674-16.745 5.4986s-25.215 4.5445-34.291 5.1079-12.34-1.024-13.806-7.1106c-1.4664-6.0865-1.1345-16.671-4.5689-23.846-3.4345-7.1754-10.633-10.937-17.107-12.897-6.474-1.9601-12.218-2.1163-15.004-4.5018s-2.6131-7.0031-4.7374-8.9007c-2.1244-1.8976-6.5463-1.0748-9.9174 0.571-3.3712 1.6458-5.6901 4.1141-6.8462 7.1528s-1.1495 6.6465-4.3402 6.4859c-3.1908-0.1605-9.5782-4.0882-13.152-8.0616-3.5743-3.9733-4.3302-7.9873-6.4089-11.279-2.0788-3.292-5.48-5.8578-7.1628-10.291-1.6827-4.4334-1.6465-10.738-5.1569-13.937-3.5104-3.1995-10.568-3.2943-17.474-4.1407-6.9058-0.84642-13.659-2.4446-21.364-1.9891s-16.36 2.9652-21.533 0.90056-6.8613-8.7051-10.296-12.188c-3.4347-3.4834-8.615-3.8082-10.916-6.117-2.3013-2.3088-1.7205-6.5998-3.0538-11.158s-4.5814-9.3794-3.0391-14.325c1.5422-4.946 7.8771-10.018 8.8553-14.108 0.9782-4.0902-3.4001-7.2004-7.9289-9.8263s-9.2073-4.7665-13.786-4.0369-9.0538 4.3296-13.695 5.5184c-4.6414 1.1888-9.448-0.035-13.9 2.8651-4.4514 2.9001-8.5472 9.9253-12.879 11.107s-8.9014-3.4822-11.875-3.3168c-2.9734 0.16546-4.3503 5.1596-6.388 8.4934s-4.7354 5.0067-8.7039 4.3202c-3.9686-0.68652-9.2062-3.7331-12.137-8.304s-3.5515-10.665-6.1688-12.373c-2.6174-1.7072-7.2308 0.97449-12.129-1.409s-10.082-9.8332-16.111-11.207c-6.0295-1.3737-12.904 3.33-14.113 7.3206s3.2454 7.2666 5.2831 10.051c2.0376 2.7847 1.6594 5.0779-1.1883 6.9095s-8.1654 3.2023-14.465 3.0241-13.582-1.9059-19.943-1.3325c-6.3613 0.57333-11.801 3.448-15.303 9.482s-5.0657 15.225-9.0511 21.127c-3.9853 5.9015-10.393 8.5134-14.522 9.0967-4.129 0.58334-5.9799-0.86305-7.5892 1.7521-1.6093 2.6151-2.9757 9.2916-4.8643 13.183s-4.2998 4.9988-7.9191 4.8604c-3.6193-0.13836-8.447-1.523-13.235-7.6624s-9.5347-17.034-15.244-21.423c-5.7089-4.389-12.379-2.2706-13.339 3.1358-0.96 5.4064 3.7905 14.098 2.2469 17.908-1.5437 3.8093-9.3819 2.7363-12.523 4.0649-3.1413 1.3286-1.5848 5.0574 1.5601 7.9713 3.1448 2.9139 7.8769 5.0133 9.211 8.1717s-0.7285 7.3756-4.2202 9.7479-8.4133 2.8998-10.074 6.4972c-1.6604 3.5974-0.059 10.263-4.259 15.45-4.2001 5.1877-14.202 8.8986-21.657 17.652-7.4557 8.7534-12.364 22.547-19.378 31.027-7.014 8.4795-16.133 11.644-20.579 15.891-4.4458 4.2467-4.2165 9.5761-3.0677 12.924 1.1488 3.3481 3.2171 4.7209 3.4194 6.6574 0.2023 1.9366-1.4589 4.4334-4.4537 6.8003-2.9948 2.367-7.3178 4.5991-14.406 3.596-7.0885-1.0032-16.941-5.2433-20.353-9.9918-3.4125-4.7486-0.38326-10.005 0.43244-14.801 0.81571-4.7957-0.58264-9.1313-5.1896-8.7718-4.607 0.3596-12.422 5.4155-16.461 5.4415s-4.3009-4.9794-4.1706-10.754c0.13023-5.7744 0.65287-12.317-3.0687-16.343-3.7216-4.026-11.688-5.5338-14.732-9.0892s-1.1625-9.1585-1.879-12.618c-0.71645-3.4598-4.0318-4.7759-7.6025-4.5047-3.5707 0.2712-7.3952 2.1304-9.1079 5.9761-1.7127 3.8458-1.3129 9.676-5.5874 15.061-4.2745 5.3851-13.223 10.326-18.15 10.047s-5.8308-5.7785-5.9069-16.952c-0.0761-11.174 0.67586-28.021-1.0799-37.36-1.7558-9.3386-6.0204-11.167-12.804-11.256-6.7839-0.089-16.086 1.5639-23.721-1.4429-7.6354-3.0069-13.603-10.674-11.563-19.348s12.089-18.353 14.917-24.547-1.5648-8.9044-6.079-14.192c-4.5142-5.2877-9.1483-13.153-15.78-15.772s-15.26 0.01-21.182 7.1546c-5.9221 7.1449-9.1366 18.804-15.903 26.174-6.7662 7.3695-17.084 10.449-28.377 7.8317s-23.561-10.933-28.637-20.717-2.9559-21.033-4.607-27.829c-1.6511-6.7958-7.0739-9.1363-12.751-9.6229-5.6766-0.48664-11.606 0.88136-15.937 0.87197-4.3312-9e-3 -7.0645-1.3971-10.424 0.10563s-7.3449 5.8959-10.56 5.6981c-3.2155-0.19781-5.6618-4.988-10.386-8.0237-4.7243-3.0358-11.727-4.3158-16.761-7.6954-5.0345-3.3797-8.1001-8.8596-11.338-10.396-3.2378-1.5366-6.6469 0.8719-8.3075 3.9098s-1.5726 6.7038-3.1398 11.047c-1.5672 4.3429-4.7894 9.363-8.0912 13.686s-6.6826 7.9469-9.923 8.427-6.3412-2.1851-6.252-5.0882c0.0892-2.9031 3.3696-6.0427 0.2295-9.0155-3.1401-2.9728-12.701-5.7788-17.311-1.422-4.61 4.3568-4.2669 15.875-7.4198 22.287s-9.8022 7.7182-12.791 2.5788c-2.9888-5.1394-2.3158-16.725-4.4654-19.586-2.1496-2.861-7.1214 3.0037-11.864 3.4373-4.7424 0.43367-9.2559-4.5648-12.308-4.6072-3.0518-0.0424-4.6402 4.8716-5.838 9.8415-1.1977 4.9699-2.0046 9.9947-6.6762 11.548-4.6716 1.5532-13.209-0.36493-16.233-6.5323-3.0242-6.1674-0.53378-16.584 0.0655-23.456 0.59929-6.872-0.69334-10.199-2.0333-13.911-1.3399-3.7119-2.727-7.8079-5.4509-10.088-2.724-2.2802-6.7853-2.7431-10.256-0.9136-3.4706 1.8295-6.3486 5.9511-10.964 6.4241-4.6156 0.47305-10.97-2.7029-15.017-2.275s-5.7848 4.4598-4.376 9.9578 5.9634 12.461 7.3418 18.053c1.3784 5.5922-0.41817 9.8139 3.5652 11.636 3.9833 1.8219 13.745 1.2442 18.019 3.101s3.0614 6.1468-0.24131 9.3114c-3.3027 3.1646-8.6959 5.2042-14.247 5.2455-5.5512 0.0412-11.261-1.9166-14.64-5.3147-3.3787-3.3981-4.4253-8.2369-7.8032-12.402s-9.0876-7.6547-13.669-11.492-8.0324-8.0207-14.038-11.18c-6.0057-3.1595-14.565-5.2933-18.867 0.16209-4.3012 5.4554-4.3422 18.499-6.3901 26.004-2.0479 7.5057-6.1031 9.4741-9.8614 8.6939-3.7583-0.78016-7.2202-4.3101-7.5945-9.6064-0.37431-5.2964 2.3401-12.358-0.12944-18.274-2.4696-5.9163-10.124-10.686-12.825-15.213-2.7004-4.5269-0.44466-8.8097-1.6258-12.17-1.1811-3.3602-5.8004-5.7977-9.2047-4.4225-3.4043 1.3752-5.5916 6.563-9.062 7.4807-3.4704 0.91774-8.225-2.4351-11.535-6.3078-3.3102-3.8727-5.1751-8.2653-8.7366-7.2907-3.5616 0.97452-8.8188 7.3172-13.939 9.812-5.1204 2.4947-10.105 1.141-11.52-2.5748-1.4151-3.7157 0.74058-9.7932-0.58632-12.825-1.3269-3.0323-6.1377-3.0185-10.823 0.34381-4.6856 3.3623-9.2446 10.073-11.433 7.3594s-2.0069-14.85-4.4063-22.576-7.3811-11.039-14.187-13.419c-6.8058-2.3795-15.435-3.824-17.401-6.5594-1.9661-2.7353 2.7321-6.7608 3.9905-13.005 1.2583-6.2438-0.92364-14.707-7.4264-19.691-6.5027-4.9841-17.326-6.4878-21.342-10.36s-1.2217-10.111 2.6375-15.681c3.8592-5.5695 8.7828-10.468 9.0352-15.536 0.25248-5.0687-4.1669-10.308-10.57-11.781-6.4034-1.4731-14.788 0.82213-23.2 1.7923-8.4128 0.97017-16.852 0.61464-19.181-2.2301-2.3285-2.8448 1.4554-8.1792 5.3767-13.333 3.9213-5.1536 7.9798-10.126 5.1644-16.776-2.8154-6.6502-12.505-14.978-17.105-22.419s-4.1078-13.994-8.1683-19.048c-4.0606-5.0532-12.675-8.6052-15.796-13.216-3.1208-4.6111-0.74627-10.281-2.2184-12.92-1.4722-2.6396-6.792-2.2483-10.644-0.64371s-6.234 4.4219-8.7581 3.932c-2.5241-0.48993-5.1908-4.2882-11.562-2.0133-6.3716 2.2749-16.447 10.624-23.551 11.253s-11.236-6.4654-19.116-3.9465c-7.8797 2.5189-19.505 14.652-26.869 17.639s-10.465-3.1735-8.3047-9.054c2.1606-5.8806 9.5836-11.479 8.1502-16.584-1.4334-5.1052-11.725-9.7174-17.504-10.887s-7.044 1.1046-9.9397 2.7629c-2.8956 1.6583-7.4219 2.7012-13.484-0.47913-6.0571-3.1803-11.085-8.2756-18.683-15.681"/>
		<path id="section_0_" d="m2173.9 947.56c3.9903 3.7715 8.4646 12.927 10.77 12.586s2.4404-10.177 4.8105-14.326c2.37-4.1488 6.9728-2.6102 10.438-3.3086 3.4647-0.69841 5.7916-3.6338 8.4395-6.2891 2.6479-2.6553 5.6148-5.0282 9.4609-6.8476 3.8461-1.8195 8.5709-3.0843 12.496-4.168 3.9252-1.0837 7.0508-1.9866 10.363-5.5566 3.3124-3.57 6.8115-9.8092 12.506-11.834s13.583 0.16457 18.52-2.1855c4.9369-2.3501 6.9249-9.2392 11.104-12.482 4.1786-3.2432 10.546-2.8392 12.533-6.8633 1.987-4.0241-0.4071-12.478 1.207-18.24 1.6142-5.7625 7.2367-8.8325 11.891-12.832 4.654-3.9995 8.3398-8.9278 12.404-9.8652 4.0644-0.93744 8.5061 2.1168 13.029 2.1504 4.5231 0.0336 9.1304-2.9517 13.586-3.5996s8.7546 1.0404 13.098-1.0703c4.3429-2.1107 8.7261-8.0188 12.658-9.8301 3.9322-1.8113 7.4107 0.47512 9.5 0.60743 2.0893 0.1323 2.7916-1.8894 3.5742-5.4277 0.7827-3.5384 1.645-8.5949 0.9492-14.457-0.6957-5.8621-2.9517-12.53-3.834-16.709-0.8824-4.1788-0.3913-5.867 2.207-8.1191 2.5983-2.2521 7.3042-5.0668 9.8321-9.1172 2.528-4.0503 2.8799-9.3374 4.7773-12.609 1.8975-3.272 5.3396-4.5264 6.9141-8.0644 1.5749-3.538 1.2807-9.3598 1.5605-13.176 0.2798-3.816 1.133-5.6252 2.8653-7.7363 1.7322-2.1111 4.3428-4.5246 7.8183-6.457s7.814-3.384 11.262-2.5644c3.4477 0.81954 6.0043 3.9098 6.0313 9.1816 0.027 5.2718-2.4731 12.726-2.7695 17.562-0.2965 4.836 1.6107 7.0525 4.0039 8.8223 2.3933 1.7698 5.2726 3.0925 8.1113 4.1543 2.8387 1.0618 5.6358 1.8617 10.18 0.85156s10.836-3.8302 14.484-5.9004c3.6485-2.0702 4.6544-3.3904 5.2675-5.6562s0.8329-5.4773 3.6582-9.5918c2.8253-4.1145 8.2556-9.1296 10.676-13.422 2.4202-4.2922 1.8309-7.8624 0.4395-10.5-1.3915-2.6376-3.5855-4.3417-6.8789-6.707-3.2933-2.3654-7.686-5.3928-10.797-8.6191-3.111-3.2264-4.9388-6.653-8.2363-8.2891-3.2974-1.6361-8.0656-1.4793-12.242-4.1035-4.1766-2.6242-7.7613-8.0294-13.396-10.973-5.6351-2.9432-13.32-3.4234-20.256-5.832-6.9363-2.4086-13.124-6.7464-18.586-10.424-5.4618-3.6774-10.197-6.694-15.727-9.1777-5.5296-2.4837-11.853-4.4339-16.705-2.875s-8.2296 6.6271-11.625 7.8574c-3.3952 1.2304-6.8097-1.378-10.721-3.5644-3.9109-2.1864-8.3192-3.9496-13.389-5.2734-5.0695-1.3238-10.799-2.2075-15.971-3.541-5.172-1.3335-9.7871-3.1183-12.627-10.357-2.84-7.2391-3.9035-19.932-7.1465-26.084-3.2429-6.1516-8.6652-5.7585-10.797-7.8242s-0.9702-6.5912-0.3848-10.057c0.5853-3.4655 0.5952-5.872-1.7559-10.561-2.3511-4.6886-7.064-11.66-9.8476-16.471s-3.6377-7.4611-3.8809-11.826c-0.2432-4.3651 0.125-10.443-3.0215-11.469-3.1465-1.0256-9.8087 3.0033-11.512-0.39258-1.703-3.3959 1.5532-14.218 0.7246-20.84-0.8286-6.6214-5.7429-9.0406-9.5976-9.834-3.8548-0.79343-6.6489 0.0398-9.5645 1.0742-2.9155 1.0345-5.9508 2.27-10.65 1.7305s-11.065-2.8536-16.359-3.6543c-5.2946-0.80068-9.5179-0.0879-12.963-0.0859s-6.1097-0.71009-8.7286-2.3105c-2.6188-1.6005-5.1915-4.091-6.5644-6.6953-1.3729-2.6043-1.5455-5.3205-1.082-9.8184 0.4634-4.4978 1.5622-10.776 4.1933-17.17 2.6311-6.3938 6.7934-12.902 7.9063-19.828 1.1177-6.9265-0.82-14.273 0-20 0.8199-5.7274 4.3993-9.8355 7.2343-12.402s4.9259-3.5922 7.5977-5.2266c2.6719-1.6344 5.9238-3.8791 8.2188-6.498 2.2949-2.619 3.6334-5.6133 4.1953-8.9512 0.5619-3.3378 0.3465-7.0196-1.2832-9.6152-1.6297-2.5956-4.6747-4.104-5.8223-6.1524-1.1476-2.0483-0.395-4.6358 1.9629-8.1113s6.3191-7.8368 6.4746-10.697-3.4974-4.2206-5.0781-6.4492c-1.5805-2.2286-1.0874-5.3268-1.4825-8.0801-0.395-2.7533-1.679-5.1612-4.3906-6.9531-2.7115-1.7919-6.8515-2.9664-8.7754-5.3574-1.9236-2.391-1.6292-5.9989-0.017-10.582 1.6118-4.5831 4.5414-10.141 6.1875-15.275 1.6462-5.1342 2.009-9.8453 1.0937-13.668-0.9152-3.8227-3.1087-6.756-5.6875-10.033-2.5789-3.2772-5.5436-6.8988-7.8164-10.061-2.2727-3.1618-3.8534-5.865-6.2227-7.5527s-5.527-2.3577-10.338-2.2051-11.274 1.1282-16.789 1.0312-10.082-1.2672-13.986-2.582c-3.9042-1.3148-7.1434-2.774-10.608-4.8144-3.4641-2.0405-7.1512-4.6637-9.4062-7.2383s-3.0782-5.1014-3.6758-7.7793c-0.5975-2.6778-0.9704-5.506-0.2598-9.5137 0.7106-4.0077 2.5058-9.1934 3.6368-12.852 1.1311-3.6581 1.5992-5.7895-1.0469-8.2578-2.6461-2.4683-8.407-5.2742-13.844-7.5723-5.4369-2.298-10.551-4.0874-15.623-5.2949-5.0718-1.2076-10.101-1.8315-13.844-2.7949-3.7424-0.96345-6.1983-2.2663-7.2968-7.5566-1.0986-5.2903-0.8383-14.569-1.6504-23.527-0.8122-8.9586-2.6969-17.598-3.461-23.15-0.7641-5.5526-0.4089-8.0174 0.8594-10.338 1.2682-2.3204 3.4504-4.4957 4.7832-7.7793 1.3328-3.2836 1.8125-7.6773 1.8125-11.791s-0.4976-7.9478-2.4141-9.5645c-1.9163-1.6167-5.2555-1.0148-8.3085-3.1855-3.0529-2.1708-5.82-7.1143-8.2696-10.23-2.4497-3.1162-4.5823-4.4033-5.8808-6.373-1.2985-1.9697-1.7608-4.622-3.42-6.127-1.6592-1.505-4.5176-1.8627-7.7324-1.2832-3.2148 0.5795-6.7854 2.0961-9.0898 4.332-2.3045 2.2359-3.3413 5.1903-6.5742 6.6777-3.2329 1.4874-8.6628 1.5081-10.986-0.39453-2.3235-1.9026-1.5402-5.7288-4.7324-7.2441s-10.361-0.71861-16.428-3.5469c-6.0664-2.8283-11.028-9.2838-13.822-14.129-2.794-4.8451-3.418-8.0805-6.4707-10.523-3.0526-2.4429-8.5342-4.0914-15.113-3.8887l-5e-4 -4e-5c-6.5791 0.20273-14.255 2.2573-20.978 4.9609-6.7235 2.7036-12.494 6.0557-17.305 11.045-4.8112 4.9892-8.6635 11.615-14.361 17.412-5.6977 5.7972-13.242 10.766-27.191 11.906-13.949 1.1405-34.303-1.5478-54.658-4.2363"/>
		<path id="section_1_" d="m2061 1044.9c0.1673-0.4208 0.3176-0.9552 0.4902-1.3594 2.9782-6.9723 6.8497-11.292 7.8809-16.453 1.0312-5.1617-0.7784-11.167-0.4727-13.168 0.3056-2.0005 2.7259 0.01 5.6407 1.8907 2.9147 1.8857 6.3233 3.6529 9.5566 3.4765 3.2334-0.1764 6.2913-2.2959 10.293-3.5918 4.0017-1.296 8.9446-1.7689 11.322-3.4882 2.3776-1.7192 2.1912-4.6847 5.5606-8.9297s10.294-9.7677 15.394-18.074 8.3762-19.397 12.361-25.178c3.985-5.7809 8.6795-6.2498 12.771-7.5293 4.0919-1.2795 7.5837-3.3704 11.082-5.2226 3.4983-1.8522 7.002-3.4668 10.992 0.30468 0.068 0.0638 0.1353 0.19879 0.2031 0.26563"/>
		<path id="section_2_" d="m1975.8 1101.6c0.1779-0.8188 0.4303-1.6536 0.5976-2.4473 0.9263-4.3927 1.9235-8.2333 5.3985-8.75 3.4749-0.5167 9.4257 2.2913 11.938 2.2363 2.5117-0.055 1.5851-2.9758-0.2383-6.1074-1.8234-3.1315-4.5431-6.4733-3.0742-10.904 1.4688-4.431 7.1281-9.9496 11.33-13.779 4.202-3.8296 6.9473-5.9719 8.3359-4.3184 1.3887 1.6534 1.4201 7.101 2.625 11.27 1.2048 4.1687 3.5817 7.0579 7.1621 8.7246 3.5805 1.6666 8.3646 2.111 14.316 0.6172s13.07-4.9251 17.672-11.453c4.6014-6.5279 6.6858-16.153 9.664-23.125 0.044-0.1033 0.094-0.1615 0.1387-0.2636"/>
		<path id="section_3_" d="m1870.8 1172.2c2.0847-0.7155 4.4535-2.1269 6.265-3.0925 6.9429-3.7008 11.473-9.7275 16.66-14.369 5.1875-4.6416 11.031-7.8971 12.59-13.172 1.559-5.2747-1.167-12.571 0.2813-13.77 1.4484-1.1985 7.0714 3.7023 13.223 5.6367 6.1512 1.9343 12.831 0.9032 18.98-1.7637 6.1494-2.6669 11.769-6.9704 17.504-10.297 5.7353-3.3265 11.585-5.6747 14.938-9.3203 2.9443-3.202 3.8987-7.3821 4.7305-11.334"/>
		<path id="section_4_" d="m1712.2 1095.7c3.8361 3.505 6.0225 7.1096 8.082 10.19 2.6024 3.8916 6.0192 6.8968 9.0645 8.2324 3.0454 1.3357 5.7222 1.0037 8.8047 2.1055 3.0826 1.1018 6.5677 3.6341 5.0195 6.166-1.5483 2.5319-8.1294 5.0607-7.8984 9.1602 0.2309 4.0994 7.2745 9.7694 12.004 12.373 4.7295 2.6037 7.1445 2.1429 10.535 2.2109 3.3905 0.068 7.757 0.666 11.6 2.3164 3.8425 1.6505 7.1612 4.3531 9.377 8.8711 2.2159 4.518 3.3289 10.85 6.5488 12.826 3.22 1.9766 8.546-0.4012 10.725 1.0918 2.1786 1.4929 1.2109 6.8552 4.5176 8.7363 3.3066 1.8811 10.887 0.283 16.117 1.0801 5.2301 0.797 8.1089 3.9881 13.514 3.4707s13.335-4.7414 21.98-7.541c6.3102-2.0435 12.854-2.8124 18.707-4.796"/>
		<path id="section_5_" d="m1591.8 1062.1c8.7167-1.0568 18.84-2.5761 26.957-4.0156 10.326-1.8312 16.087-2.7815 16.746-5.5 0.6593-2.7184-3.7849-7.2066-3.7949-8.5118s4.4107 0.5729 8.5156 1.2227c4.1048 0.6498 7.892 0.071 10.68 2.0762 2.7878 2.0054 4.5733 6.5909 7.1523 6.3535 2.5791-0.2374 5.9514-5.2967 8.3242-5.8711 2.3728-0.5745 3.7463 3.3362 6.17 5.7051s5.8948 3.1967 7.2675 7.5429c1.3728 4.3463 0.6478 12.21 6.0078 18.033 5.36 5.8235 16.804 9.6069 23.42 13.889 1.059 0.6854 1.4094 1.414 2.2441 2.1192"/>
		<path id="section_6_" d="m1569.9 1050.5c0.2212 1.8629 0.3875 4.0535 0.7383 5.5098 1.4664 6.0866 4.7301 7.6747 13.807 7.1113 1.8916-0.1174 4.8438-0.7877 7.1465-1.0645"/>
		<path id="section_7_" d="m1468.3 973.52c3.2653 0.52626 6.1268 1.3331 7.9707 3.0137 3.5104 3.1995 3.4736 9.5041 5.1563 13.938 1.6828 4.4334 5.0833 6.9991 7.1621 10.291 2.0787 3.292 2.8359 7.306 6.4102 11.279 3.5743 3.9734 9.9615 7.9 13.152 8.0605 3.1907 0.1606 3.1837-3.4476 4.3398-6.4863s3.4746-5.5066 6.8457-7.1524 7.7936-2.4679 9.918-0.5703c2.1243 1.8976 1.9506 6.5149 4.7363 8.9004s8.53 2.5419 15.004 4.502c6.4738 1.9601 13.673 5.7211 17.107 12.896 2.5375 5.3016 3.0918 11.998 3.7617 17.832"/>
		<path id="section_8_" d="m1388.4 929.42c-0.3632 4.2774 2.0654 8.4525 3.2266 12.422 1.3333 4.5578 0.7534 8.8494 3.0547 11.158 2.3014 2.3088 7.4813 2.6338 10.916 6.1172 3.4348 3.4834 5.1243 10.123 10.297 12.188 5.1726 2.0647 13.828-0.44485 21.533-0.90039 7.705-0.45554 14.458 1.1438 21.363 1.9902 3.3371 0.40902 6.6833 0.65531 9.6739 1.1484"/>
		<path id="section_9_" d="m1221.7 921.38c5.209 0.19606 10.64 1.025 15.557 1.1641 6.2998 0.1782 11.617-1.1919 14.465-3.0234s3.2251-4.1255 1.1875-6.9102c-2.0377-2.7847-6.4905-6.0602-5.2812-10.051s8.0818-8.694 14.111-7.3203c6.0295 1.3737 11.213 8.8236 16.111 11.207s9.5135-0.29898 12.131 1.4082c2.6173 1.7072 3.2376 7.8022 6.168 12.373 2.9304 4.5708 8.1681 7.6182 12.137 8.3047 3.9685 0.68652 6.6654-0.98652 8.7031-4.3203 2.0377-3.3338 3.4153-8.3287 6.3887-8.4941 2.9733-0.16545 7.5433 4.4976 11.875 3.3164s8.4275-8.2054 12.879-11.105c4.4515-2.9001 9.257-1.6764 13.898-2.8652 4.6414-1.1888 9.1167-4.7899 13.695-5.5195 4.5786-0.72966 9.2583 1.4113 13.787 4.0371 4.5288 2.6258 8.906 5.7359 7.9278 9.8262s-7.3133 9.1634-8.8555 14.109c-0.3997 1.2818-0.4611 2.5537-0.334 3.8164"/>
		<path id="section_10_" d="m1171.8 962.12c1.4543-1.1834 3.1975-0.71583 6.6328-1.2012 4.129-0.58335 10.536-3.1942 14.522-9.0957 3.9854-5.9015 5.5487-15.093 9.0508-21.127 3.5021-6.034 8.9414-8.9091 15.303-9.4824 1.4968-0.1349 3.1292 0.11192 4.7031 0.18164"/>
		<path id="section_11_" d="m1132.3 954.33c4.6198 5.1762 8.4227 13.503 12.488 18.716 4.7879 6.1394 9.6151 7.5238 13.234 7.6621 3.6193 0.13837 6.0313-0.96986 7.9199-4.8613s3.254-10.568 4.8633-13.184c0.4479-0.72796 1.0566-0.6822 1.5859-0.91211"/>
		<path id="section_12_" d="m1099.1 1022.9c2.7905-4.8858 1.8668-10.546 3.3574-13.775 1.6605-3.5974 6.5825-4.1238 10.074-6.4961s5.5548-6.5896 4.2207-9.748c-1.3341-3.1584-6.0661-5.258-9.2109-8.1719-3.1449-2.9139-4.7019-6.6421-1.5606-7.9707 3.1414-1.3286 10.98-0.25714 12.524-4.0664 1.5436-3.8093-3.2081-12.5-2.2481-17.906s7.631-7.5257 13.34-3.1367c0.9809 0.75416 2.2654 2.1092 3.1946 3.1904"/>
		<path id="section_13_" d="m1064 1063c4.055-7.2111 7.6211-15.002 12.559-20.8 7.4558-8.7533 17.456-12.465 21.656-17.652 0.461-0.5695 0.6356-1.1998 0.9688-1.7989"/>
		<path id="section_14_" d="m1014.4 1118c1.2322 0.313 2.5525 0.9847 3.6816 1.1445 7.0885 1.0031 11.412-1.2287 14.406-3.5957 2.9948-2.3669 4.6554-4.8641 4.4531-6.8007-0.2023-1.9365-2.2711-3.3082-3.4199-6.6563-1.1488-3.3482-1.3775-8.6791 3.0683-12.926 4.4457-4.2467 13.564-7.4111 20.578-15.891 2.3941-2.8943 5.0068-7.071 7.0953-10.792"/>
		<path id="section_15_" d="m921.17 1066c3.5104-1.887 6.9442-4.4613 9.1562-7.2481 4.2745-5.3851 3.8752-11.217 5.5879-15.062 1.7127-3.8457 5.5368-5.7034 9.1074-5.9746 3.5706-0.2712 6.8871 1.0441 7.6035 4.5039 0.71645 3.4599-1.1648 9.0638 1.8789 12.619 3.0437 3.5554 11.011 5.0619 14.732 9.0879 3.7216 4.0259 3.1986 10.569 3.0684 16.344-0.13023 5.7745 0.13115 10.78 4.1699 10.754 4.0388-0.026 11.854-5.0818 16.461-5.4414 4.607-0.3595 6.0052 3.9758 5.1894 8.7715-0.8157 4.7958-3.8441 10.052-0.43164 14.801 2.8689 3.9921 10.169 7.1955 16.672 8.8476"/>
		<path id="section_16_" d="m900.91 1005.7c1.9887 1.6618 3.4395 4.3323 4.2793 8.7988 1.7558 9.3386 1.004 26.185 1.0801 37.359 0.0761 11.174 0.98148 16.674 5.9082 16.953 2.532 0.1433 6.0882-1.1339 9.5644-3.0996"/>
		<path id="section_17_" d="m851.32 928.61c5.9913 3.0408 10.392 10.11 14.625 15.068 4.5142 5.2877 8.9086 7.997 6.0801 14.191-2.8285 6.1944-12.878 15.873-14.918 24.547-2.0401 8.6741 3.9271 16.341 11.562 19.348 7.6354 3.0068 16.937 1.3543 23.721 1.4433 3.7028 0.048 6.5857 0.7619 8.7891 2.7852"/>
		<path id="section_18_" d="m753.81 941.9c0.53472 2.1729 1.1663 4.3488 2.2539 6.4453 5.0753 9.7834 17.343 18.099 28.637 20.717 11.293 2.6176 21.611-0.46257 28.377-7.832 6.7662-7.3695 9.9803-19.029 15.902-26.174 5.9221-7.1446 14.55-9.7735 21.182-7.1543 0.63587 0.25114 1.1746 0.74327 1.7754 1.084"/>
		<path id="section_19_" d="m643.87 919.92c3.2565-4.284 6.4395-9.2214 7.9863-13.508 1.5672-4.3428 1.478-8.0089 3.1387-11.047 1.6607-3.038 5.0708-5.4448 8.3086-3.9082 3.2378 1.5366 6.3034 7.0149 11.338 10.395 5.0345 3.3796 12.037 4.6615 16.762 7.6973 4.7243 3.0358 7.1692 7.8256 10.385 8.0234 3.2155 0.19781 7.2006-4.1965 10.561-5.6992s6.0946-0.11447 10.426-0.10547c4.3312 9e-3 10.259-1.3577 15.936-0.87109s11.101 2.8272 12.752 9.623c1.2928 5.3211 0.39288 13.36 2.3262 21.301"/>
		<path id="section_20_" d="m550.77 937.49c3.1313-2.12 4.0223-6.2816 5.0488-10.541 1.1977-4.9699 2.7861-9.8842 5.8379-9.8418 3.0518 0.0424 7.5662 5.0411 12.309 4.6074 4.7424-0.43366 9.7137-6.2985 11.863-3.4375 2.1496 2.861 1.478 14.447 4.4668 19.586 2.9888 5.1393 9.6381 3.8339 12.791-2.5781 3.1529-6.412 2.8099-17.93 7.4199-22.287s14.17-1.5509 17.311 1.4219c3.1401 2.9728-0.13931 6.1125-0.22851 9.0156-0.0892 2.9031 3.0115 5.568 6.252 5.0879s6.6202-4.1053 9.9219-8.4277c8e-3 -0.0105 0.0115-0.0227 0.0195-0.0332"/>
		<path id="section_21_" d="m9.9707 625.37c7.5982 7.4056 12.625 12.501 18.682 15.682 6.0622 3.1803 10.589 2.1387 13.484 0.48047 2.8956-1.6582 4.1607-3.9329 9.9395-2.7637s16.07 5.7815 17.504 10.887c1.4334 5.1052-5.9898 10.703-8.1504 16.584-2.1606 5.8806 0.94112 12.042 8.3047 9.0547s18.989-15.12 26.869-17.639c7.8797-2.5189 12.011 4.5737 19.115 3.9453s17.179-8.977 23.551-11.252c6.3716-2.2749 9.0384 1.5237 11.562 2.0137 2.5241 0.48993 4.906-2.3271 8.7578-3.9316 3.8518-1.6046 9.1724-1.997 10.645 0.64258 1.4721 2.6396-0.90203 8.3108 2.2187 12.922 3.1208 4.6111 11.734 8.1617 15.795 13.215 4.0606 5.0532 3.5681 11.608 8.168 19.049 4.5999 7.4411 14.29 15.768 17.105 22.418 2.8154 6.6502-1.2427 11.624-5.1641 16.777-3.9213 5.1536-7.7054 10.487-5.377 13.332 2.3285 2.8448 10.769 3.2006 19.182 2.2305 8.4128-0.97015 16.796-3.266 23.199-1.793 6.4033 1.473 10.823 6.7125 10.57 11.781-0.25248 5.0687-5.176 9.9676-9.0352 15.537-3.8592 5.5695-6.6524 11.81-2.6367 15.682 4.0157 3.8717 14.839 5.3753 21.342 10.359 6.5028 4.9841 8.6841 13.446 7.4258 19.689-1.2583 6.2438-5.9564 10.271-3.9902 13.006 1.9661 2.7353 10.597 4.1791 17.402 6.5586 6.8058 2.3795 11.786 5.6941 14.186 13.42s2.2176 19.861 4.4062 22.574 6.748-3.9971 11.434-7.3594c4.6857-3.3623 9.4973-3.376 10.824-0.34375 1.3269 3.0323-0.82917 9.1105 0.58594 12.826 1.4151 3.7157 6.3992 5.0689 11.52 2.5742 5.1204-2.4947 10.378-8.836 13.939-9.8105 3.5616-0.97453 5.4261 3.4164 8.7363 7.2891 3.3102 3.8727 8.0647 7.2263 11.535 6.3086 3.4704-0.91773 5.6582-6.1053 9.0625-7.4805 3.4043-1.3752 8.024 1.0617 9.2051 4.4219 1.1811 3.3602-1.0754 7.643 1.625 12.17 2.7004 4.5269 10.355 9.2966 12.824 15.213s-0.24345 12.979 0.13085 18.275c0.37431 5.2964 3.8355 8.8273 7.5938 9.6074 3.7583 0.78016 7.8134-1.1897 9.8613-8.6953 2.0479-7.5056 2.0894-20.548 6.3906-26.004 4.3012-5.4554 12.861-3.3216 18.867-0.16211 6.0057 3.1594 9.4561 7.3428 14.037 11.18 4.581 3.8369 10.29 7.3274 13.668 11.492 3.3779 4.1648 4.426 9.0043 7.8047 12.402 3.3787 3.3981 9.0874 5.3556 14.639 5.3144 5.5512-0.0412 10.945-2.0815 14.248-5.2461s4.5143-7.4538 0.24023-9.3105c-4.2741-1.8567-14.036-1.2797-18.02-3.1016-3.9833-1.8219-2.186-6.0446-3.5644-11.637s-5.9329-12.555-7.3418-18.053c-1.4089-5.498 0.33001-9.5291 4.377-9.957 4.0469-0.42792 10.4 2.7484 15.016 2.2754s7.4943-4.5963 10.965-6.4258c3.4706-1.8295 7.5319-1.3661 10.256 0.91406 2.724 2.2802 4.1093 6.376 5.4492 10.088 1.34 3.7119 2.6344 7.0401 2.0352 13.912-0.59928 6.872-3.0906 17.288-0.0664 23.455 3.0242 6.1674 11.561 8.0864 16.232 6.5332 0.97479-0.32409 1.6981-0.87634 2.375-1.4707"/>
	</g>
	<g id="other_rivers" fill="none" stroke="#00caff">
		<path id="river_Mosel" d="m126.8 523.83c-10.114-2.2966-20.23-4.5934-25.124-11.157-4.8946-6.5641-4.5668-17.395-10.092-23.744s-16.904-8.212-29.356-7.2052-25.976 4.8845-34.846 11.757c-8.87 6.872-13.086 16.738-17.077 24.872-3.991 8.1337-7.757 14.534-11.523 20.936" stroke-width="3"/>
		<path id="river_Rhein" d="m-2.8534 792.76c2.4781-2.9327 4.9563-5.8655 7.4344-8.7983 4.6107-6.0258 9.2211-12.051 8.6209-30.702s-6.4115-49.925-8.5206-77.213c-2.1091-27.288-0.51559-50.585 9.9681-68.574 10.484-17.988 29.856-30.665 54.335-45.549 24.478-14.884 54.06-31.975 74.897-51.917 20.837-19.943 32.927-42.736 32.714-61.012s-12.731-32.032-22.02-46.342c-9.2892-14.31-15.345-29.167-19.477-42.186-4.1315-13.018-6.3364-24.193-15.489-30.552-9.1524-6.3592-25.255-7.9024-47.085-9.4245-21.83-1.522-49.388-3.0228-76.948-4.5236" stroke-width="7"/>
	</g>
	<g id="markers" fill="#292929" stroke-miterlimit="21" stroke-width=".93122" paint-order="fill markers stroke">
		<use id="mark_Lahnkopf" x="1829" y="89" href="#equi_triangle"/>
		<circle id="dot_Bad_Laasphe" cx="2105" cy="213" r="11.4"/>
		<circle id="dot_Biedenkopf" cx="2213" cy="337.6" r="11.4"/>
		<circle id="dot_Marburg" cx="2350.4" cy="837.3" r="11.4"/>
		<circle id="dot_Roth" cx="2173" cy="946.5" r="11.4"/>
		<circle id="dot_Odenhausen" cx="2047" cy="1037" r="11.4"/>
		<circle id="dot_Wettenberg" cx="1963" cy="1089.5" r="11.4"/>
		<circle id="dot_Giessen" cx="1874" cy="1181.2" r="11.4"/>
		<circle id="dot_Dorlar" cx="1722.5" cy="1084.1" r="11.4"/>
		<circle id="dot_Wetzlar" cx="1591.4" cy="1063.6" r="11.4"/>
		<circle id="dot_Kanustation" cx="1555.1" cy="1054.3" r="11.4"/>
		<circle id="dot_Solms" cx="1468" cy="983.1" r="11.4"/>
		<circle id="dot_Leun" cx="1404.5" cy="931.7" r="11.4"/>
		<circle id="dot_Biskirchen" cx="1308" cy="912.4" r="11.4"/>
		<circle id="dot_Loehnberg" cx="1222.1" cy="908.7" r="11.4"/>
		<circle id="dot_Weilburg" cx="1172" cy="959" r="11.4"/>
		<circle id="dot_Odersbach" cx="1144.1" cy="944.5" r="11.4"/>
		<circle id="dot_Graeveneck" cx="1111.4" cy="1029.9" r="11.4"/>
		<circle id="dot_Fuerfurt" cx="1076.8" cy="1069.8" r="11.4"/>
		<circle id="dot_Aumenau" cx="1016.6" cy="1104" r="11.4"/>
		<circle id="dot_Villmar" cx="928" cy="1079" r="11.4"/>
		<circle id="dot_Runkel" cx="892.9" cy="1015.2" r="11.4"/>
		<circle id="dot_Dehrn" cx="857.4" cy="918.4" r="11.4"/>
		<circle id="dot_Limburg" cx="747.5" cy="940.8" r="11.4"/>
		<circle id="dot_Diez" cx="654.2" cy="923.6" r="11.4"/>
		<circle id="dot_Balduinstein" cx="559.4" cy="949.1" r="11.4"/>
		<circle id="dot_Bad_Ems" cx="172.2" cy="640" r="11.4"/>
		<circle id="dot_Lahnstein" cx="17.8" cy="652.7" r="11.4"/>
		<circle id="dot_Koblenz" cx="88.2" cy="525.7" r="17"/>
	</g>
	<g id="text_items" font-family="sans-serif" font-size="28px" font-weight="bold" stroke-width=".9">
		<text id="text_Lahnkopf" x="1829" y="132" text-anchor="middle">Lahnkopf</text>
		<text id="text_Bad_Laasphe" x="2090" y="196">Bad Laasphe</text>
		<text id="text_Biedenkopf" x="2230" y="347">Biedenkopf</text>
		<text id="text_Marburg" x="2374" y="819" text-anchor="end">Marburg</text>
		<text id="text_Roth" x="2166" y="932" text-anchor="middle">Roth</text>
		<text id="text_Odenhausen" x="2047" y="1023" text-anchor="end">Odenhausen</text>
		<text id="text_Wettenberg" x="1983" y="1070" text-anchor="end">Wettenberg</text>
		<text id="text_Giessen" x="1891" y="1186">Gieen</text>
		<text id="text_Dorlar" x="1737" y="1094">Dorlar</text>
		<text id="text_Wetzlar" x="1587" y="1098" text-anchor="middle">Wetzlar</text>
		<text id="text_Kanustation" x="1537" y="1064" text-anchor="end">Kanustation</text>
		<text id="text_Solms" x="1455" y="999" text-anchor="end">Solms</text>
		<text id="text_Leun" x="1420" y="942">Leun</text>
		<text id="text_Biskirchen" x="1290" y="892">Biskirchen</text>
		<text id="text_Loehnberg" x="1223" y="889" text-anchor="end">Lhnberg</text>
		<text id="text_Weilburg" x="1180" y="994">Weilburg</text>
		<text id="text_Odersbach" x="1163" y="930" text-anchor="end">Odersbach</text>
		<text id="text_Graeveneck" x="1128" y="1042">Grveneck</text>
		<text id="text_Fuerfurt" x="1092" y="1084">Frfurt</text>
		<text id="text_Aumenau" x="1015" y="1147" text-anchor="middle">Aumenau</text>
		<text id="text_Villmar" x="910" y="1097" text-anchor="end">Villmar</text>
		<text id="text_Runkel" x="878" y="1035" text-anchor="end">Runkel</text>
		<text id="text_Dehrn" x="854" y="904" text-anchor="middle">Dehrn</text>
		<text id="text_Limburg" x="750" y="973" text-anchor="end">Limburg</text>
		<text id="text_Diez" x="644" y="902" text-anchor="end">Diez</text>
		<text id="text_Balduinstein" x="594" y="981" text-anchor="end">Balduinstein</text>
		<text id="text_Bad_Ems" x="187" y="650">Bad Ems</text>
		<text id="text_Lahnstein" x="13" y="703">Lahnstein</text>
		<text id="Text_Koblenz" x="95" y="566" text-anchor="middle">Koblenz</text>
	</g>
	<g id="locks" fill="none" marker-end="url(#arrow_rev)" marker-start="url(#arrow)" stroke="#000000" stroke-linecap="round" stroke-opacity="0" stroke-width=".8">
		<use id="lock_Dorlar" transform="rotate(53,1714,1097)" x="1714" y="1097" href="#lock_marker"/>
		<use id="lock_Naunheim" transform="rotate(30,1669,1051)" x="1669" y="1051" href="#lock_marker"/>
		<use id="lock_Altenberg" transform="rotate(54,1532,1012)" x="1532" y="1012" href="#lock_marker"/>
		<use id="lock_Oberbiel" transform="rotate(58,1490,1005)" x="1490" y="1005" href="#lock_marker"/>
		<use id="lock_Niederbiel" transform="rotate(58,1485,996)" x="1482" y="996" href="#lock_marker"/>
		<use id="lock_Loehnberg" transform="rotate(5,1230,922)" x="1230" y="922" href="#lock_marker"/>
		<use id="lock_Weilburg" transform="rotate(-33,1186,958)" x="1186" y="958" href="#lock_marker"/>
		<use id="lock_Weilburg2_" transform="rotate(-70,1168.5,968.5)" x="1168.5" y="968.5" href="#lock_marker"/>
		<use id="lock_Kirschhofen" transform="rotate(-52,1116,974)" x="1116" y="974" href="#lock_marker"/>
		<use id="lock_Fuerfurt" transform="rotate(-59,1062,1066)" x="1062" y="1066" href="#lock_marker"/>
		<use id="lock_Villmar" transform="rotate(-35,924,1064)" x="924" y="1064" href="#lock_marker"/>
		<use id="lock_Runkel" transform="rotate(86,906,1024)" x="906" y="1024" href="#lock_marker"/>
		<use id="lock_Limburg" transform="rotate(47,760,954)" x="760" y="954" href="#lock_marker"/>
		<use id="lock_Diez" transform="rotate(-68,651,908)" x="651" y="908" href="#lock_marker"/>
		<use id="lock_Cramberg" transform="rotate(60,533.5,932)" x="533.5" y="932" href="#lock_marker"/>
		<use id="lock_Scheidt" transform="rotate(250 490 909)" x="490" y="909" href="#lock_marker"/>
		<use id="lock_Kalkofen" transform="rotate(90,407,926)" x="407" y="926" href="#lock_marker"/>
		<use id="lock_Hollerich" transform="rotate(-38,316,869)" x="316" y="869" href="#lock_marker"/>
		<use id="lock_Nassau" transform="rotate(56,269,804)" x="269" y="804" href="#lock_marker"/>
		<use id="lock_Dausenau" transform="rotate(-8,223,749)" x="223" y="749" href="#lock_marker"/>
		<use id="lock_Bad_Ems" transform="rotate(66,190,678)" x="190" y="678" href="#lock_marker"/>
		<use id="lock_Nievern" transform="rotate(-18,141,650)" x="141" y="650" href="#lock_marker"/>
		<use id="lock_Ahl" transform="rotate(88,61,672)" x="61" y="672" href="#lock_marker"/>
		<use id="lock_Lahnstein" transform="rotate(22,30,642)" x="30" y="642" href="#lock_marker"/>
	</g>
	<g id="legend">
		<rect id="legend_outline" x="2143.9" y="36.979" width="236.08" height="98.592" fill="none" stroke="#000000" stroke-linejoin="round" stroke-width="2"/>
		<g id="g_legend_line_lock">
			<use x="2171" y="49" href="#lock_marker"/>
			<text id="text_lock" x="2199.4109" y="56.755714" font-family="sans-serif" font-size="21.333px" letter-spacing="0px" word-spacing="0px" style="font-variant-caps:normal;font-variant-east-asian:normal;font-variant-ligatures:normal;font-variant-numeric:normal;line-height:1.25984px">Lock</text>
		</g>
		<g id="g_legend_line_base_section" transform="translate(0 .29893)">
			<path id="ex_base_section" d="m2153.6 70.008h30.005" fill="none" stroke="#005eff" stroke-linecap="round" stroke-linejoin="round" stroke-width="10"/>
			<text id="text_base_section" x="2199.4109" y="77.960953" font-family="sans-serif" font-size="21.333px" letter-spacing="0px" word-spacing="0px" style="font-variant-caps:normal;font-variant-east-asian:normal;font-variant-ligatures:normal;font-variant-numeric:normal;line-height:1.25984px">Base section</text>
		</g>
		<g id="g_legend_line_optional_section" transform="translate(0 1.0889)">
			<path id="ex_optional_section" d="m2153.6 91.127h30.001" stroke="#005eff" stroke-dasharray="10, 20" stroke-linecap="round" stroke-linejoin="round" stroke-width="10"/>
			<text id="text_optional_section" x="2199.4109" y="98.675171" font-family="sans-serif" font-size="21.333px" letter-spacing="0px" word-spacing="0px" style="font-variant-caps:normal;font-variant-east-asian:normal;font-variant-ligatures:normal;font-variant-numeric:normal;line-height:1.25984px">Optional section</text>
		</g>
		<g id="g_legend_line_woods">
			<text id="text_nature" x="2199.4109" y="125.02861" font-family="sans-serif" font-size="21.333px" letter-spacing="0px" word-spacing="0px" style="font-variant-caps:normal;font-variant-east-asian:normal;font-variant-ligatures:normal;font-variant-numeric:normal;line-height:1.25984px">Wooded area</text>
			<rect id="ex_nature" x="2154" y="108" width="30.599" height="18.063" ry="2.8" fill="#008c00" stroke-width="0"/>
		</g>
	</g>
	<use id="compass" transform="rotate(38.8 2386 190)" x="2386" y="190" href="#north_arrow"/>
</svg>
